<?xml version="1.0" encoding="utf-8"?>
<!-- Generator: Adobe Illustrator 26.0.0, SVG Export Plug-In . SVG Version: 6.00 Build 0)  -->
<svg version="1.1" id="Camada_1" xmlns="http://www.w3.org/2000/svg" xmlns:xlink="http://www.w3.org/1999/xlink" x="0px" y="0px"
	 viewBox="0 0 300 80" style="enable-background:new 0 0 300 80;" xml:space="preserve">
<style type="text/css">
	.st0{fill:#00713C;}
	.st1{fill:#1D1D1B;}
</style>
<path class="st0" d="M40.9,44.2c0,1.2,0,2.3,0,3.5c0,0.9-0.1,1.9-0.3,2.8c-0.2,1.3-0.5,2.6-0.8,3.9c-0.3,1-0.6,2.1-1,3.1
	c-0.4,0.9-0.8,1.8-1.2,2.7c-0.5,0.9-1,1.8-1.6,2.7c-0.4,0.6-0.8,1.2-1.2,1.9c-0.3,0.4-0.5,0.7-0.8,1.1c-0.4,0.5-0.8,1-1.3,1.5
	c-0.3,0.4-0.6,0.7-1,1c-0.2,0.1-0.3,0.2-0.5,0.2c-0.2,0-0.3,0-0.5,0c-0.4,0-0.7-0.3-0.7-0.7c0-0.5,0.2-0.9,0.5-1.2
	c0.5-0.5,1-1,1.4-1.6c0.4-0.4,0.8-0.9,1.1-1.4c0.3-0.5,0.7-1,1.1-1.6c0.5-0.8,0.9-1.6,1.4-2.4c1.2-2.2,2.1-4.5,2.6-7
	c0.4-1.6,0.6-3.2,0.7-4.8c0-2.2,0.1-4.4,0.1-6.7c0-1.5-0.5-2.9-1.2-4.2c-0.5-0.9-1.2-1.6-1.9-2.3c-0.7-0.6-1.5-1-2.3-1.4
	c-1-0.4-2-0.7-3-0.7c-0.8,0-1.7,0-2.5,0.2c-0.8,0.2-1.7,0.6-2.4,1c-0.8,0.4-1.5,1-2.1,1.7c-0.8,0.8-1.4,1.8-1.8,2.9
	C21,39.7,21,41.1,21,42.6c0,1.4,0,2.8-0.1,4.3c-0.1,1.3-0.5,2.6-1.1,3.8c-0.2,0.4-0.5,0.9-0.7,1.3c-0.1,0.2-0.2,0.4-0.4,0.5
	c-0.2,0.2-0.4,0.5-0.6,0.7L16.5,55c-0.1,0.1-0.1,0.1-0.2,0.2c-0.3,0.4-0.7,0.8-1,1.1c-0.1,0.2-0.4,0.3-0.6,0.3c-0.1,0-0.2,0-0.3,0
	c-0.4,0.1-0.6-0.2-0.8-0.5c-0.2-0.3-0.2-0.7,0.1-1c0.3-0.4,0.6-0.7,0.9-1c0.5-0.5,0.9-1,1.3-1.6c0.1-0.1,0.3-0.3,0.4-0.4
	c1.3-1.4,2.2-3.2,2.5-5.1c0.1-0.7,0.1-1.4,0.1-2.2c0-1.5,0-3.1,0.1-4.6c0-0.8,0.2-1.6,0.6-2.4c0.2-0.6,0.5-1.1,0.8-1.6
	c0.2-0.4,0.4-0.7,0.7-1c0.3-0.4,0.6-0.8,1-1.2c0.3-0.3,0.5-0.5,0.8-0.7c1.5-1.3,3.4-2.1,5.3-2.4c1-0.1,2-0.2,3.1,0
	c0.9,0.1,1.9,0.3,2.7,0.7c0.9,0.3,1.8,0.8,2.5,1.4c0.6,0.6,1.3,1.1,1.9,1.8c0.3,0.4,0.7,0.8,0.9,1.3c0.8,1.2,1.3,2.5,1.5,3.9
	c0.1,0.7,0.1,1.3,0.1,2C40.9,42.7,40.9,43.4,40.9,44.2z"/>
<path class="st0" d="M36.9,44.1c0,1.3,0.1,2.5,0,3.8c-0.1,1.3-0.3,2.7-0.6,4c-0.3,1.6-0.8,3.2-1.5,4.7c-0.4,1-0.9,1.9-1.4,2.9
	c-0.4,0.8-0.9,1.6-1.4,2.3c-0.6,0.9-1.3,1.7-2,2.5c-0.7,0.8-1.4,1.6-2.1,2.3c-0.4,0.4-0.7,0.8-1.1,1.2c-0.2,0.2-0.3,0.4-0.5,0.6
	c-0.1,0.1-0.3,0.2-0.4,0.2c-0.2,0-0.4,0-0.6,0c-0.2,0-0.4-0.1-0.5-0.3c-0.2-0.4-0.2-1,0.2-1.3c0.4-0.5,0.9-1,1.4-1.5
	c0.6-0.6,1.2-1.3,1.8-1.9c0.3-0.4,0.6-0.8,1-1.2c0.7-0.9,1.4-1.8,2-2.8c0.3-0.5,0.6-1,0.9-1.5c0.6-1.1,1.2-2.3,1.6-3.6
	c0.6-1.7,1-3.5,1.3-5.3c0.1-1.4,0.2-2.8,0.1-4.2c0-1.3,0-2.7,0-4c0-0.7-0.2-1.3-0.6-1.9c-0.3-0.4-0.5-0.7-0.9-1.1
	c-0.7-0.7-1.7-1.2-2.7-1.3c-0.8-0.1-1.6-0.1-2.3,0.2c-0.8,0.3-1.6,0.7-2.2,1.4c-0.9,0.9-1.3,2.2-1.3,3.5c0,1.5,0,3.1-0.1,4.6
	c-0.1,1.6-0.4,3.2-1,4.7c-0.3,0.9-0.7,1.7-1.2,2.5c-0.4,0.6-0.8,1.2-1.2,1.7c-0.4,0.5-0.8,1-1.2,1.5c-0.5,0.6-1.1,1.2-1.6,1.8
	c-0.3,0.3-0.5,0.6-0.8,0.9c-0.3,0.3-0.7,0.2-1.1,0.1c-0.3-0.1-0.5-0.4-0.5-0.8c0-0.4,0.1-0.7,0.4-0.9c0.4-0.4,0.7-0.8,1.1-1.1
	c0.6-0.7,1.3-1.4,1.9-2.1c0.3-0.4,0.6-0.7,0.8-1.1c0.4-0.6,0.7-1.1,1.1-1.7c0.2-0.3,0.3-0.7,0.5-1.1c0.4-1,0.7-2.1,0.9-3.2
	c0.1-1,0.1-1.9,0.1-2.9c0-1.3,0-2.5,0.1-3.8c0.1-1,0.4-2,1-2.8c0.3-0.5,0.6-0.9,1-1.3c0.5-0.4,1-0.8,1.6-1.2
	c0.7-0.4,1.4-0.7,2.2-0.8c0.6,0,1.1,0,1.7,0c1.2,0,2.3,0.4,3.2,1c0.6,0.4,1.2,0.9,1.7,1.5c0.8,0.9,1.3,1.9,1.4,3.1
	c0.1,1,0.1,2,0.1,3.1C37,43.6,37,43.9,36.9,44.1L36.9,44.1z"/>
<path class="st0" d="M32.9,44.5c0,1,0,2.1,0,3.1c0,0.7-0.1,1.4-0.2,2c-0.2,1.3-0.5,2.5-0.9,3.7c-0.4,1.1-0.8,2.2-1.4,3.2
	c-0.5,1.1-1.2,2.2-1.9,3.1c-0.4,0.6-0.9,1.2-1.4,1.7c-0.7,0.8-1.4,1.6-2.2,2.4l-1.2,1.3c-0.4,0.4-0.8,0.8-1.1,1.2
	c-0.3,0.3-0.6,0.3-1,0.2C21.3,66.6,21,66.3,21,66c-0.1-0.4,0-0.8,0.3-1.1c0.5-0.5,1-1.1,1.5-1.6c0.4-0.4,0.8-0.8,1.1-1.3
	c0.5-0.6,1-1.2,1.6-1.8c0.4-0.5,0.8-1,1.1-1.5c0.3-0.4,0.6-0.7,0.8-1.1c0.4-0.7,0.8-1.4,1.2-2.2c0.6-1.1,1.1-2.3,1.4-3.6
	c0.3-1.1,0.5-2.1,0.7-3.2c0.3-2.3,0.1-4.7,0.1-7c0-0.4-0.3-0.8-0.7-0.8c0,0-0.1,0-0.1,0c-0.3,0-0.6,0-0.8,0.2
	c-0.2,0.2-0.3,0.4-0.3,0.7c0,1.4,0,2.9-0.1,4.3c0,2.2-0.5,4.4-1.3,6.5c-0.2,0.7-0.5,1.3-0.9,2c-0.5,0.9-1,1.8-1.6,2.6
	c-0.5,0.7-1,1.3-1.5,1.9c-0.3,0.4-0.7,0.7-1,1.1c-0.7,0.7-1.4,1.5-2,2.3c-0.3,0.3-0.6,0.7-0.9,1c-0.1,0.2-0.4,0.3-0.6,0.3
	c-0.1,0-0.3,0-0.4,0c-0.3,0-0.6-0.3-0.7-0.6c-0.1-0.4,0.1-0.9,0.4-1.2c0.4-0.4,0.8-0.8,1.1-1.2c0.7-0.7,1.4-1.5,2-2.2
	c0.5-0.6,1-1.3,1.6-1.9c0.6-0.7,1.1-1.5,1.5-2.3c0.8-1.5,1.4-3.1,1.8-4.7c0.4-1.6,0.4-3.2,0.4-4.8c0-1,0-1.9,0.1-2.9
	c0-0.5,0.1-1,0.3-1.5c0.6-0.9,1.3-1.6,2.5-1.6c0.6-0.1,1.2,0.1,1.7,0.4c0.3,0.3,0.7,0.6,1,0.9c0.4,0.4,0.4,1,0.4,1.5
	C32.9,42.5,32.9,43.5,32.9,44.5z"/>
<path class="st0" d="M55.7,40.3c-0.3-0.3-0.6-0.6-0.9-0.9c-0.3-0.3-0.5-0.6-0.5-1c-0.1-0.5,0.2-1,0.7-1.3c0.3-0.2,0.6-0.4,0.9-0.7
	c0.4-0.3,0.5-0.8,0.3-1.3c0-0.1-0.1-0.1-0.2-0.2c-0.4-0.5-0.9-0.9-1.3-1.4c-0.9-0.9-1.6-2.1-2-3.4c-0.3-1.1-0.4-2.2-0.3-3.4
	c0-0.3,0-0.6,0.1-0.9c0-0.8-0.1-1.5-0.4-2.2c-0.4-1.2-1.1-2.2-1.9-3.1c-0.8-0.8-1.7-1.6-2.6-2.4c-0.3-0.2-0.7-0.5-1-0.6
	c-0.1,0-0.1-0.1-0.2-0.1c-0.3-0.2-0.4-0.7-0.3-1.1c0.3-0.3,0.8-0.4,1.1-0.2c0.8,0.4,1.5,0.8,2.1,1.4c0.6,0.6,1.2,1.1,1.8,1.8
	c0.4,0.4,0.7,0.9,1.1,1.3c0.9,1.1,1.5,2.5,1.8,3.9c0.1,0.6,0.2,1.3,0.1,1.9c-0.1,1.7-0.1,3.4,0.8,4.9c0.4,0.6,0.9,1.2,1.4,1.7
	c0.4,0.4,0.8,0.8,1.1,1.2c0.3,0.4,0.5,0.9,0.5,1.4c0,0.5-0.1,0.9-0.2,1.4c-0.3,0.5-0.7,0.9-1.1,1.2l-0.2,0.1c-0.4,0.3-0.3,0.3,0,0.5
	s0.5,0.5,0.7,0.7c0.5,0.5,0.5,1.4,0,1.9c0,0-0.1,0.1-0.1,0.1c-0.3,0.2-0.2,0.3-0.1,0.6c0.4,0.8,0.3,1.4-0.4,1.9
	c-0.1,0.1-0.2,0.2-0.4,0.3c-0.5,0.3-0.6,0.5-0.5,1.1s0.4,1.1,0.5,1.7c0.3,0.7,0.3,1.5,0,2.2c-0.2,0.5-0.6,0.9-1,1.1
	c-0.7,0.5-1.5,0.5-2.3,0.7c-1.4,0.2-2.8,0.6-4.1,1.1c-0.9,0.3-1.8,0.8-2.5,1.5c-0.7,0.7-1.3,1.5-2,2.3c-0.1,0.2-0.2,0.3-0.3,0.5
	c-0.8,1.3-1.5,2.7-2.1,4.1c-0.4,1-0.8,1.9-1.1,2.9c-0.5,1.4-1,2.8-1.5,4.1c-0.2,0.5-0.3,1-0.5,1.4c-0.1,0.4-0.5,0.6-0.8,0.5
	c0,0,0,0,0,0c-0.4-0.1-0.7-0.4-0.7-0.8c0.1-0.6,0.3-1.2,0.5-1.7c0.3-1,0.7-2,1.1-3c0.4-1,0.7-1.9,1.1-2.8c0.3-0.8,0.6-1.5,1-2.2
	c0.5-0.9,1-1.9,1.5-2.8c0.5-0.9,1.1-1.8,1.8-2.5c0.6-0.7,1.2-1.3,1.9-1.8c1-0.7,2-1.2,3.1-1.5c1.3-0.4,2.7-0.7,4.1-0.9
	c0.4-0.1,0.7-0.2,1-0.3c0.5-0.3,0.6-0.6,0.4-1.2c-0.2-0.6-0.4-1.1-0.6-1.7c-0.3-0.8-0.2-1.7,0.2-2.4c0.2-0.3,0.5-0.6,0.9-0.8
	c0.2-0.1,0.2-0.2,0.1-0.4c-0.3-0.5-0.3-1.1,0-1.6C55.4,40.6,55.5,40.4,55.7,40.3z"/>
<path class="st0" d="M7.1,40.2c0-1.6,0.3-3.2,0.7-4.7c0.3-1.3,0.8-2.6,1.4-3.8c0.4-0.7,0.7-1.4,1.1-2.1c0.4-0.7,0.9-1.3,1.4-2
	c0.4-0.6,0.9-1.1,1.4-1.7c0.3-0.3,0.6-0.7,0.9-1c0.5-0.5,1-0.9,1.6-1.3c0.4-0.3,0.8-0.6,1.2-0.9c0.5-0.3,0.9-0.7,1.4-1
	c0.8-0.4,1.6-0.9,2.4-1.3c0.8-0.4,1.6-0.7,2.4-0.9c1.1-0.3,2.1-0.6,3.2-0.8c1.8-0.3,3.5-0.4,5.3-0.3c0.6,0,1.2,0.1,1.8,0.2
	c0.4,0,0.8,0.4,0.8,0.8c0.1,0.4-0.1,0.9-0.5,1.1c-0.1,0-0.2,0.1-0.4,0c-1.2,0-2.4-0.1-3.7-0.1c-1.7,0-3.4,0.2-5,0.6
	c-1.6,0.4-3.1,1-4.5,1.8c-0.9,0.5-1.7,1.1-2.6,1.7c-1.2,0.9-2.4,1.9-3.4,3c-0.4,0.4-0.7,0.9-1.1,1.4c-0.4,0.6-0.9,1.2-1.3,1.9
	c-0.1,0.1-0.2,0.3-0.2,0.5c-0.4,0.7-0.7,1.3-1,2c-0.4,1.1-0.8,2.2-1.1,3.3C9.3,38,9.1,39.2,9,40.4c0,0.4-0.1,0.7-0.4,1
	c-0.4,0.3-0.9,0.3-1.3,0C7.1,41.3,7,41,7.1,40.7C7.1,40.5,7.1,40.4,7.1,40.2z"/>
<path class="st0" d="M48.9,43c0,1,0,2,0,3c0,0.4-0.4,0.8-0.8,0.8c-0.3,0.1-0.6,0-0.9-0.3C47.1,46.3,47,46,47,45.7c0-0.9,0-1.8,0-2.7
	c0-1.1,0-2.3-0.1-3.4c-0.1-1.5-0.5-2.9-1.1-4.3c-0.3-0.7-0.6-1.3-0.9-2c-0.3-0.5-0.6-1-0.9-1.5c-0.8-1.1-1.7-2.1-2.7-3
	c-0.5-0.4-1-0.8-1.5-1.2c-0.6-0.5-1.3-0.9-2-1.2c-1.2-0.6-2.5-1.1-3.8-1.4c-1.1-0.3-2.3-0.4-3.5-0.5c-0.6,0-1.2-0.1-1.8-0.1
	c-0.3-0.1-0.6-0.3-0.6-0.7c-0.1-0.4,0-0.8,0.3-1c0.1-0.1,0.3-0.2,0.5-0.2c1,0,2-0.1,3,0c1,0.1,1.9,0.3,2.9,0.5
	c1.7,0.4,3.4,1.1,4.9,2c0.7,0.4,1.3,0.9,2,1.4c1.1,0.8,2,1.8,3,2.8c0.9,1.1,1.7,2.3,2.4,3.6c1.5,2.9,2.3,6.1,2.1,9.4
	C48.9,42.5,48.9,42.8,48.9,43z"/>
<path class="st0" d="M30.2,14.7c0.9,0,2,0.1,3.1,0.2c1.5,0.2,3,0.5,4.5,0.9c1.2,0.3,2.4,0.8,3.5,1.3c0.8,0.4,1.6,0.8,2.3,1.2
	c0.5,0.3,0.9,0.6,1.4,0.9c0.7,0.5,1.4,0.9,2,1.4s1.1,1,1.7,1.6c0.3,0.3,0.6,0.6,0.9,0.9c0.3,0.4,0.3,0.9,0,1.2
	c-0.4,0.4-1.2,0.4-1.6,0c-0.4-0.4-0.9-0.9-1.3-1.3c-0.5-0.4-1-0.8-1.5-1.2s-0.9-0.7-1.4-1c-0.3-0.2-0.7-0.4-1-0.6
	c-0.8-0.4-1.6-0.8-2.4-1.2c-0.4-0.2-0.8-0.3-1.2-0.5c-1.2-0.5-2.5-0.9-3.8-1.1c-0.8-0.2-1.7-0.3-2.5-0.4c-1-0.1-2-0.2-3-0.2
	c-0.9,0-1.8,0.1-2.8,0.2c-1,0.1-1.9,0.3-2.9,0.5c-0.3,0.1-0.7,0-1-0.2C23,16.8,22.9,16.4,23,16c0.1-0.3,0.4-0.6,0.7-0.6
	c1.2-0.3,2.4-0.5,3.6-0.6C28.2,14.7,29.1,14.7,30.2,14.7z"/>
<path class="st0" d="M10,49.6c-0.4,0.1-0.7-0.1-0.8-0.5c-0.1-0.4-0.1-0.8,0.2-1.2c0.4-0.4,0.8-0.8,1.1-1.3c0.3-0.3,0.4-0.8,0.5-1.2
	c0-1.8,0-3.5,0.1-5.3c0.1-1.4,0.3-2.8,0.8-4.1c0.4-1.3,1-2.6,1.7-3.8c0.5-0.9,1-1.7,1.7-2.4c0.4-0.4,0.7-0.8,1.1-1.2
	c0.1-0.1,0.2-0.1,0.4-0.2c0.1,0,0.2,0,0.2,0c0.3,0,0.5-0.1,0.7,0.2c0.2,0.3,0.3,0.7,0.2,1.1c-0.1,0.2-0.1,0.3-0.3,0.4
	c-0.4,0.5-0.9,1-1.3,1.5c-0.6,0.9-1.2,1.8-1.6,2.7c-0.7,1.4-1.2,3-1.4,4.6c-0.2,1.2-0.1,2.4-0.2,3.6c0,0.9,0,1.8-0.1,2.8
	c0,0.7-0.2,1.4-0.5,2c-0.2,0.2-0.3,0.5-0.5,0.7c-0.4,0.4-0.7,0.8-1.1,1.2C10.5,49.6,10.5,49.6,10,49.6z"/>
<path class="st0" d="M45,43.8c0,1.5-0.1,3.1-0.1,4.6c0,0.8-0.2,1.6-0.2,2.3c-0.1,0.3-0.2,0.5-0.5,0.7c-0.1,0-0.1,0.1-0.2,0.1
	c-0.1,0-0.3,0-0.4,0c-0.4,0-0.8-0.3-0.8-0.7c0,0,0-0.1,0-0.1c0-0.4,0-0.9,0.1-1.3c0.1-1.3,0.2-2.5,0.1-3.8c0-1.5,0-3.1,0-4.6
	c0-1.2-0.2-2.4-0.7-3.5c-0.3-0.8-0.6-1.6-1-2.3c-0.4-0.6-0.8-1.2-1.2-1.7c-0.4-0.5-1-1-1.4-1.6c-0.4-0.4-0.3-1.4,0.3-1.6
	c0.4-0.2,0.9-0.1,1.2,0.2c0.5,0.5,1,1,1.5,1.5c0.4,0.4,0.7,0.9,1,1.4c0.4,0.6,0.7,1.2,1,1.8c0.6,1.3,1,2.6,1.2,4
	C45,40.8,45.1,42.3,45,43.8z"/>
<path class="st0" d="M30,10.8c0.8,0,1.6-0.1,2.4,0c1.1,0.1,2.3,0.3,3.4,0.4c0.5,0.1,0.9,0.2,1.4,0.3c0.3,0,0.6,0.3,0.7,0.6
	c0.2,0.5,0,1.2-0.5,1.3c-0.3,0-0.7,0-1,0c-1.5-0.3-3.1-0.5-4.7-0.6c-1.3,0-2.5,0-3.8,0c-2,0.1-3.9,0.5-5.8,1
	c-1.2,0.3-2.5,0.8-3.6,1.3c-0.3,0.2-0.6,0.3-1,0.4c-0.4,0.1-0.7,0.1-1.1,0c-0.4-0.1-0.6-0.8-0.4-1.2c0.1-0.3,0.3-0.5,0.6-0.6
	c0.9-0.3,1.7-0.7,2.6-1.1c1.5-0.6,3-1,4.6-1.3c1.9-0.4,3.7-0.6,5.6-0.5C29.6,10.8,29.8,10.8,30,10.8z"/>
<path class="st0" d="M15,41.3c0-1.8,0.4-3.5,1-5.1c0.3-0.7,0.6-1.3,0.9-2c0.4-0.6,0.8-1.2,1.3-1.8c0.4-0.5,0.8-1,1.2-1.4
	c0.6-0.6,1.3-1.1,2-1.6c0.6-0.4,1.2-0.8,1.9-1.1c0.7-0.3,1.4-0.6,2.1-0.8c0.8-0.2,1.5-0.4,2.3-0.5c0.4-0.1,0.7,0,1,0.2
	c0.4,0.4,0.4,1.5-0.4,1.7c-0.6,0.1-1.2,0.2-1.8,0.4c-0.6,0.2-1.1,0.4-1.7,0.6c-0.4,0.2-0.7,0.3-1.1,0.5c-0.5,0.3-1,0.6-1.5,1
	c-0.5,0.4-1,0.8-1.4,1.3c-0.5,0.5-1,1.1-1.4,1.6c-0.4,0.6-0.7,1.2-1,1.8c-0.8,1.6-1.3,3.3-1.3,5.1c0,0.3-0.1,0.7-0.1,1
	c-0.1,0.3-0.3,0.5-0.6,0.5c-0.1,0-0.3,0-0.4,0c-0.6,0.1-0.8-0.3-0.9-0.9C15,41.6,15,41.4,15,41.3z"/>
<path class="st0" d="M9.4,26.6c-0.4,0.1-0.7-0.2-0.8-0.5c-0.2-0.4-0.1-0.8,0.1-1.1c0.5-0.5,0.9-1.1,1.4-1.6c0.3-0.4,0.6-0.7,1-1.1
	c0.5-0.5,1-0.9,1.5-1.3c0.4-0.4,0.8-0.7,1.3-1c0.7-0.5,1.4-1,2.2-1.5c0.7-0.5,1.5-0.9,2.3-1.3c0.4-0.2,0.9-0.4,1.3-0.6
	c0.4-0.1,0.8-0.1,1.1,0.2c0.4,0.4,0.4,1.1,0,1.5c-0.1,0.1-0.2,0.1-0.3,0.2c-0.8,0.3-1.5,0.7-2.2,1.1c-0.4,0.2-0.9,0.5-1.3,0.8
	c-0.4,0.3-0.8,0.5-1.1,0.7S15,21.7,14.6,22c-1.2,0.9-2.2,1.9-3.2,3c-0.4,0.4-0.7,0.9-1.1,1.3C10,26.6,9.9,26.6,9.4,26.6z"/>
<path class="st0" d="M51.8,34.7c0,0.5-0.3,0.9-0.8,1c0,0,0,0,0,0c-0.5,0.1-0.9-0.2-1.1-0.7c-0.5-1.3-1-2.6-1.7-3.8
	c-0.4-0.6-0.8-1.2-1.2-1.8c-0.5-0.7-1-1.3-1.6-1.9c-0.2-0.3-0.3-0.7-0.1-1.1c0.1-0.3,0.4-0.5,0.8-0.5c0.3-0.1,0.7,0.1,0.9,0.3
	c0.4,0.5,0.8,1,1.2,1.4c0.5,0.7,1,1.3,1.5,2c0.4,0.6,0.7,1.3,1,2c0.4,0.8,0.7,1.6,1,2.4C51.7,34.2,51.8,34.4,51.8,34.7z"/>
<path class="st0" d="M16.9,45.7c0,1.2-0.3,2.5-1,3.5c-0.3,0.5-0.7,1-1.1,1.5c-0.4,0.5-0.8,1-1.3,1.5c-0.2,0.3-0.5,0.5-0.8,0.8
	c-0.1,0.1-0.2,0.3-0.3,0.4c-0.4,0.3-1,0.3-1.4,0c-0.1-0.1-0.1-0.1-0.2-0.2c-0.1-0.5,0-1,0.3-1.4c0.5-0.5,0.9-1,1.4-1.5
	c0.6-0.6,1.1-1.2,1.5-1.9c0.5-0.9,0.8-1.8,0.8-2.8c-0.1-0.4,0.1-0.8,0.5-1c0.3-0.2,0.7-0.2,1.1,0c0.3,0.2,0.4,0.5,0.4,0.8
	C16.9,45.5,16.9,45.6,16.9,45.7z"/>
<path class="st0" d="M37.2,19.9c0.4-0.1,0.9,0.2,1.3,0.4c0.6,0.2,1.3,0.5,1.9,0.8c0.7,0.4,1.4,0.8,2.1,1.3c0.4,0.2,0.7,0.5,1.1,0.7
	c0.2,0.1,0.4,0.3,0.4,0.5c0.1,0.3,0.1,0.7-0.1,1c-0.1,0.2-0.3,0.3-0.5,0.3c-0.2,0-0.5,0-0.7,0c-0.1,0-0.2,0-0.3-0.1
	c-0.6-0.4-1.1-0.8-1.7-1.1c-0.6-0.3-1.1-0.7-1.7-0.9c-0.6-0.3-1.2-0.5-1.8-0.8c-0.3-0.1-0.6-0.2-0.8-0.3c-0.3-0.1-0.4-0.4-0.4-0.6
	c0-0.1,0-0.2,0-0.4c0-0.4,0.2-0.7,0.6-0.8c0,0,0.1,0,0.1,0L37.2,19.9z"/>
<path class="st0" d="M25.1,23.4c0.5-0.1,1,0.3,1.1,0.8c0,0.2,0,0.4-0.1,0.6c-0.2,0.2-0.4,0.4-0.6,0.5c-0.5,0.2-1.1,0.4-1.7,0.6
	c-0.7,0.3-1.4,0.6-2,1c-0.5,0.3-1,0.6-1.5,0.9c-0.4,0.2-0.8,0.2-1.2-0.1c-0.3-0.3-0.4-0.7-0.2-1.1c0.1-0.3,0.2-0.5,0.5-0.6
	c0.6-0.3,1.1-0.7,1.7-1c1.1-0.6,2.3-1.1,3.5-1.5C24.7,23.4,24.9,23.4,25.1,23.4z"/>
<path class="st0" d="M37,29c0.1,0.5-0.3,1-0.8,1c-0.1,0-0.3,0-0.4-0.1c-0.3-0.1-0.6-0.2-0.9-0.4c-0.9-0.4-1.9-0.6-2.9-0.8
	c-0.3,0-0.6-0.2-0.7-0.5c-0.2-0.3-0.2-0.7,0-1c0.1-0.3,0.4-0.5,0.8-0.5c0.4,0,0.9,0.1,1.3,0.2c1,0.2,2,0.5,2.9,1
	c0.2,0.1,0.3,0.2,0.5,0.3C36.9,28.5,37,28.7,37,29z"/>
<path class="st0" d="M40.1,13.7c-0.1-0.8,0.7-1.2,1.4-0.9c0.9,0.4,1.9,0.8,2.8,1.3c0.3,0.1,0.6,0.4,0.6,0.8c0.1,0.5-0.2,1-0.7,1.1
	c-0.3,0.1-0.6,0-0.8-0.1c-0.9-0.4-1.8-0.8-2.8-1.3C40.3,14.6,40,14.2,40.1,13.7z"/>
<path class="st0" d="M70.8,18.4h8.1c1.1,0,2.3,0.2,3.3,0.5c0.9,0.3,1.7,0.8,2.4,1.5c0.6,0.6,1.1,1.4,1.4,2.2
	c0.3,0.8,0.5,1.7,0.5,2.6c0,1.3-0.3,2.6-0.9,3.7C85,30,84.1,30.9,83,31.5l4.8,8.7h-5.4l-4-8h-2.7v8h-4.8V18.4z M78.6,28.3
	c1.6,0,3-1.4,2.9-3c0-0.7-0.3-1.4-0.8-2c-0.6-0.5-1.4-0.8-2.2-0.8h-3v5.8H78.6z"/>
<path class="st0" d="M89,18.4h14.9v4.3h-10V27h7.7v4.2h-7.7v4.7h10.7v4.3H89V18.4z"/>
<path class="st0" d="M106.3,18.4h8.2c1.6,0,3.1,0.2,4.7,0.7c1.4,0.4,2.6,1.1,3.7,2c1.1,0.9,1.9,2.1,2.4,3.4c0.6,1.6,0.9,3.2,0.9,4.9
	c0,1.6-0.3,3.2-0.9,4.7c-0.6,1.3-1.4,2.4-2.4,3.4c-1.1,0.9-2.3,1.6-3.7,2c-1.5,0.5-3.1,0.7-4.6,0.7h-8.2V18.4z M114.2,35.8
	c2.2,0,3.9-0.6,5-1.7c1.2-1.1,1.8-2.7,1.8-4.7c0-0.9-0.1-1.8-0.4-2.7c-0.3-0.8-0.7-1.5-1.2-2.1c-0.6-0.6-1.3-1.1-2.1-1.3
	c-1-0.3-2-0.5-3-0.5h-3v13.1L114.2,35.8z"/>
<path class="st0" d="M128,18.4h14.9v4.3h-10V27h7.7v4.2H133v4.7h10.7v4.3H128V18.4z"/>
<path class="st0" d="M152.9,18.4h8.2c1.2,0,2.3,0.1,3.4,0.5c0.8,0.3,1.6,0.7,2.3,1.3c0.6,0.5,1,1.1,1.3,1.8c0.3,0.7,0.4,1.4,0.4,2.1
	c0,0.6-0.1,1.3-0.4,1.8c-0.2,0.5-0.5,1-0.9,1.4c-0.3,0.4-0.7,0.7-1.1,0.9c-0.3,0.2-0.6,0.3-1,0.4c0.5,0.1,0.9,0.3,1.4,0.5
	c0.5,0.2,1,0.6,1.5,1c0.5,0.5,0.9,1,1.1,1.6c0.3,0.7,0.5,1.5,0.5,2.3c0,1-0.2,2-0.6,2.9c-0.4,0.8-1,1.4-1.7,1.9
	c-0.8,0.5-1.7,0.9-2.7,1.1c-1.2,0.2-2.4,0.4-3.5,0.3h-8.2V18.4z M160.6,27.1c0.4,0,0.7,0,1.1-0.1c0.3-0.1,0.7-0.2,0.9-0.4
	c0.3-0.2,0.5-0.5,0.7-0.8c0.2-0.4,0.3-0.7,0.3-1.1c0-0.4-0.1-0.8-0.3-1.2c-0.2-0.3-0.4-0.6-0.7-0.8c-0.3-0.2-0.6-0.3-1-0.4
	c-0.3-0.1-0.7-0.1-1.1-0.1h-2.9v4.9L160.6,27.1z M160.9,36.4c0.4,0,0.8,0,1.2-0.1c0.4-0.1,0.8-0.2,1.2-0.4c0.4-0.2,0.7-0.5,0.9-0.8
	c0.3-0.5,0.4-1,0.4-1.5c0.1-0.9-0.4-1.8-1.3-2.3c-0.4-0.2-0.8-0.4-1.2-0.4c-0.4-0.1-0.8-0.1-1.2-0.1h-3.2v5.7L160.9,36.4z"/>
<path class="st0" d="M171.3,18.4h8.1c1.1,0,2.3,0.2,3.3,0.5c0.9,0.3,1.7,0.8,2.4,1.5c0.6,0.6,1.1,1.4,1.4,2.2
	c0.3,0.8,0.5,1.7,0.5,2.6c0,1.3-0.3,2.6-0.9,3.7c-0.6,1.1-1.5,1.9-2.6,2.5l4.8,8.7h-5.4l-4-8h-2.7v8h-4.8V18.4z M179.1,28.3
	c1.6,0,3-1.4,2.9-3c0-0.7-0.3-1.4-0.8-2c-0.6-0.5-1.4-0.8-2.2-0.8h-3.1v5.8H179.1z"/>
<path class="st0" d="M195.7,18.4h5.4l8,21.8h-5.4l-1.7-5h-7.7l-1.7,5h-5.2L195.7,18.4z M200.9,31.4l-2.6-8.2l-2.7,8.2L200.9,31.4z"
	/>
<path class="st0" d="M211.5,33.7c0.3,0.3,0.6,0.6,1,0.9c0.4,0.3,0.8,0.6,1.3,0.9c0.5,0.3,1,0.5,1.5,0.6c0.6,0.2,1.2,0.2,1.8,0.2
	c0.4,0,0.7-0.1,1.1-0.2c0.4-0.1,0.7-0.3,1-0.5c0.3-0.2,0.5-0.5,0.7-0.8c0.2-0.3,0.3-0.6,0.3-1c0-0.8-0.5-1.5-1.2-1.9
	c-1.2-0.6-2.4-1-3.7-1.3c-0.8-0.2-1.6-0.5-2.3-0.8c-0.7-0.3-1.3-0.8-1.8-1.3c-0.5-0.5-0.9-1.1-1.2-1.8c-0.3-0.7-0.4-1.5-0.4-2.3
	c0-0.9,0.2-1.8,0.5-2.6c0.3-0.8,0.8-1.5,1.5-2.1c0.7-0.7,1.6-1.2,2.5-1.5c1.1-0.4,2.3-0.6,3.5-0.5c1,0,2,0.1,2.9,0.3
	c0.8,0.2,1.5,0.5,2.2,0.8c0.5,0.3,1,0.6,1.5,1c0.4,0.3,0.7,0.6,0.9,0.8l-2.8,3.1c-0.2-0.2-0.5-0.4-0.8-0.6c-0.3-0.2-0.7-0.5-1.1-0.6
	c-0.4-0.2-0.8-0.4-1.3-0.5c-0.5-0.1-1-0.2-1.5-0.2c-0.3,0-0.7,0.1-1,0.2c-0.3,0.1-0.6,0.3-0.9,0.4c-0.3,0.2-0.5,0.4-0.7,0.7
	c-0.2,0.2-0.2,0.5-0.2,0.8c0,0.7,0.4,1.3,1.2,1.8c1,0.5,2.1,0.9,3.2,1.1c0.8,0.2,1.6,0.5,2.4,0.8c0.8,0.3,1.5,0.8,2.1,1.3
	c0.6,0.6,1.1,1.2,1.5,2c0.4,0.9,0.6,1.9,0.6,2.9c0,0.9-0.2,1.9-0.7,2.7c-0.4,0.8-1,1.6-1.8,2.2c-0.8,0.6-1.7,1.1-2.6,1.4
	c-1.1,0.3-2.2,0.5-3.3,0.5c-1,0-2-0.1-3-0.3c-0.8-0.2-1.6-0.5-2.4-0.8c-0.7-0.3-1.3-0.7-1.9-1.1c-0.5-0.4-1-0.8-1.5-1.3L211.5,33.7z
	"/>
<path class="st0" d="M227.5,18.4h4.9v21.8h-4.9V18.4z"/>
<path class="st0" d="M235.1,18.4h4.9v17.4h10.4v4.4h-15.3V18.4z"/>
<path class="st0" d="M259.2,18.4h8.1c1.1,0,2.3,0.2,3.3,0.5c0.9,0.3,1.7,0.8,2.4,1.5c0.6,0.6,1.1,1.4,1.4,2.2
	c0.3,0.8,0.5,1.7,0.5,2.6c0,1.3-0.3,2.6-0.9,3.7c-0.6,1.1-1.5,1.9-2.6,2.5l4.8,8.7h-5.4l-4-8H264v8h-4.8V18.4z M267.1,28.3
	c1.6,0,3-1.4,3-3c0-0.7-0.3-1.4-0.8-2c-0.6-0.5-1.4-0.8-2.2-0.8h-3v5.8H267.1z"/>
<path class="st0" d="M277.4,18.4h7.9c1.2,0,2.4,0.2,3.5,0.6c0.9,0.3,1.7,0.9,2.4,1.6c0.6,0.6,1.1,1.4,1.4,2.2
	c0.3,0.9,0.4,1.7,0.4,2.6c0,1.1-0.2,2.1-0.6,3.1c-0.4,0.8-0.9,1.6-1.6,2.2c-0.7,0.6-1.5,1-2.4,1.3c-0.9,0.3-1.9,0.5-2.8,0.5h-3.4
	v7.7h-4.8V18.4z M285.1,28.5c0.8,0,1.6-0.3,2.2-0.8c0.5-0.6,0.8-1.4,0.8-2.2c0-0.8-0.3-1.6-0.8-2.2c-0.6-0.6-1.4-0.9-2.2-0.9h-2.8
	v6.1L285.1,28.5z"/>
<path class="st1" d="M81,59.1c-0.2,0.3-0.4,0.5-0.6,0.7c-0.3,0.3-0.6,0.6-1,0.8c-0.4,0.3-0.9,0.5-1.4,0.6c-0.6,0.2-1.1,0.3-1.7,0.3
	c-0.8,0-1.7-0.1-2.4-0.5c-0.7-0.3-1.4-0.7-1.9-1.3c-0.5-0.6-1-1.2-1.2-2c-0.6-1.6-0.6-3.4,0-4.9c0.3-0.7,0.7-1.4,1.2-2
	c0.5-0.6,1.2-1,1.9-1.4c0.8-0.3,1.6-0.5,2.4-0.5c1.1,0,2.1,0.3,3,0.8c0.4,0.2,0.7,0.5,1,0.8c0.2,0.2,0.5,0.5,0.7,0.8l-1.2,1
	c-0.2-0.2-0.3-0.4-0.5-0.6c-0.2-0.2-0.4-0.4-0.7-0.6c-0.3-0.2-0.6-0.3-1-0.5c-0.4-0.1-0.8-0.2-1.2-0.2c-1.2,0-2.3,0.5-3.1,1.4
	c-0.4,0.4-0.7,1-0.8,1.5c-0.2,0.6-0.3,1.2-0.3,1.8c0,0.6,0.1,1.2,0.3,1.8c0.2,0.5,0.5,1,0.8,1.5c0.4,0.4,0.8,0.8,1.3,1
	c0.5,0.2,1.1,0.4,1.7,0.4c0.5,0,0.9-0.1,1.4-0.2c0.4-0.1,0.7-0.3,1-0.5c0.2-0.2,0.5-0.4,0.7-0.6c0.2-0.2,0.3-0.4,0.4-0.5L81,59.1z"
	/>
<path class="st1" d="M94.9,60c-0.1,0.1-0.2,0.2-0.4,0.4c-0.2,0.2-0.5,0.4-0.7,0.5c-0.3,0.2-0.7,0.3-1.1,0.4
	c-0.5,0.1-0.9,0.2-1.4,0.2c-0.6,0-1.2-0.1-1.8-0.3c-0.5-0.2-1-0.5-1.4-0.9c-0.4-0.4-0.7-0.9-0.9-1.4c-0.2-0.6-0.3-1.2-0.3-1.8
	c0-0.6,0.1-1.2,0.3-1.7c0.6-1.6,2.1-2.7,3.9-2.6c0.6,0,1.3,0.1,1.8,0.4c0.5,0.3,0.9,0.6,1.3,1.1c0.3,0.5,0.6,1,0.7,1.6
	c0.2,0.6,0.2,1.2,0.2,1.8h-6.6c0,0.4,0.1,0.7,0.2,1c0.1,0.3,0.4,0.6,0.6,0.8c0.3,0.2,0.5,0.4,0.9,0.5c0.3,0.1,0.7,0.2,1,0.2
	c0.6,0,1.2-0.1,1.7-0.4c0.4-0.2,0.7-0.4,1-0.7L94.9,60z M93.4,56.3c0-0.6-0.3-1.2-0.7-1.7c-0.4-0.5-1.1-0.7-1.7-0.7
	c-0.4,0-0.7,0.1-1,0.2c-0.6,0.2-1,0.7-1.3,1.3c-0.1,0.3-0.2,0.6-0.2,0.9L93.4,56.3z"/>
<path class="st1" d="M101.4,54.6v-0.9c0-0.3,0-0.5,0-0.8h1.5l0.1,1.3c0.1-0.2,0.2-0.3,0.4-0.5c0.2-0.2,0.4-0.3,0.6-0.5
	c0.2-0.2,0.5-0.3,0.8-0.4c0.3-0.1,0.7-0.2,1-0.2c0.2,0,0.3,0,0.5,0c0.1,0,0.3,0.1,0.4,0.1l-0.4,1.5c-0.3-0.1-0.5-0.1-0.8-0.1
	c-0.7,0-1.3,0.3-1.7,0.8c-0.2,0.2-0.4,0.5-0.5,0.8c-0.1,0.3-0.2,0.6-0.2,1v4.4h-1.6L101.4,54.6z"/>
<path class="st1" d="M113.1,54.2h-1.5v-1.3h1.5v-2.7h1.6v2.7h2.4v1.3h-2.4v4.1c0,0.5,0.1,1,0.3,1.4c0.2,0.3,0.6,0.4,0.9,0.4
	c0.3,0,0.5,0,0.8-0.1c0.2-0.1,0.4-0.3,0.6-0.4l0.7,1c-0.6,0.6-1.5,1-2.4,1c-0.9,0-1.5-0.2-1.9-0.7c-0.4-0.5-0.6-1.2-0.6-2.2
	L113.1,54.2z"/>
<path class="st1" d="M123.8,49.6h1.8v1.8h-1.8V49.6z M123.9,52.9h1.6v8.4h-1.6V52.9z"/>
<path class="st1" d="M132.9,54.2h-1.5v-1.3h1.5v-0.7c0-0.5,0.1-1,0.2-1.5c0.1-0.4,0.4-0.7,0.6-1c0.3-0.3,0.6-0.5,0.9-0.6
	c0.4-0.1,0.7-0.2,1.1-0.2c0.4,0,0.9,0.1,1.3,0.2c0.4,0.1,0.8,0.4,1.2,0.7l-0.8,1c-0.4-0.4-0.9-0.5-1.4-0.6c-0.4,0-0.8,0.1-1.1,0.4
	c-0.3,0.3-0.4,0.8-0.4,1.5v0.5h2.4v1.3h-2.4v7h-1.6L132.9,54.2z"/>
<path class="st1" d="M143.2,49.6h1.8v1.8h-1.8L143.2,49.6z M143.3,52.9h1.6v8.4h-1.6V52.9z"/>
<path class="st1" d="M159,60c-0.4,0.4-0.9,0.8-1.4,1c-0.6,0.3-1.3,0.4-1.9,0.4c-0.6,0-1.2-0.1-1.8-0.3c-1.1-0.4-1.9-1.3-2.3-2.3
	c-0.2-0.6-0.3-1.2-0.3-1.8c0-0.6,0.1-1.2,0.3-1.7c0.2-0.5,0.5-1,0.9-1.4c1.3-1.3,3.3-1.7,5-0.9c0.5,0.2,1,0.6,1.4,1l-1.1,1
	c-0.2-0.3-0.6-0.6-0.9-0.7c-0.4-0.2-0.8-0.3-1.3-0.3c-0.4,0-0.8,0.1-1.1,0.2c-0.3,0.2-0.6,0.4-0.9,0.7c-0.2,0.3-0.4,0.6-0.5,1
	c-0.1,0.4-0.2,0.8-0.2,1.1c0,0.4,0.1,0.8,0.2,1.1c0.1,0.4,0.3,0.7,0.5,1c0.5,0.6,1.2,0.9,2,0.9c0.5,0,0.9-0.1,1.3-0.3
	c0.4-0.2,0.7-0.4,1-0.8L159,60z"/>
<path class="st1" d="M170.3,60.2c-0.3,0.4-0.7,0.7-1.2,0.9c-0.5,0.2-1,0.3-1.6,0.3c-0.3,0-0.7,0-1-0.1c-0.3-0.1-0.7-0.2-0.9-0.5
	c-0.3-0.2-0.5-0.5-0.7-0.8c-0.2-0.4-0.3-0.8-0.3-1.2c0-0.8,0.3-1.6,0.9-2.2c0.6-0.5,1.5-0.8,2.7-0.8c0.2,0,0.4,0,0.6,0l0.6,0l0.5,0
	c0.1,0,0.2,0,0.3,0v-0.3c0-0.5-0.2-1-0.6-1.3c-0.5-0.3-1-0.4-1.5-0.4c-0.5,0-1,0.1-1.5,0.3c-0.3,0.1-0.6,0.3-0.9,0.5l-0.8-1.1
	c0.2-0.1,0.3-0.3,0.5-0.4c0.2-0.1,0.5-0.2,0.7-0.3c0.3-0.1,0.6-0.2,0.9-0.3c0.4-0.1,0.8-0.1,1.2,0c0.9-0.1,1.8,0.2,2.5,0.8
	c0.6,0.6,1,1.4,0.9,2.2v4.9c0,0.3,0,0.5,0,0.8h-1.5V60.2z M170.3,57.2c-0.1,0-0.2,0-0.3,0c-0.1,0-0.3,0-0.5,0l-0.6,0
	c-0.2,0-0.4,0-0.6,0c-0.4,0-0.7,0-1.1,0.2c-0.2,0.1-0.5,0.2-0.7,0.4c-0.2,0.1-0.3,0.3-0.3,0.5c-0.1,0.2-0.1,0.4-0.1,0.6
	c0,0.4,0.2,0.8,0.5,1c0.4,0.3,0.8,0.4,1.3,0.4c0.3,0,0.6-0.1,0.9-0.2c0.3-0.1,0.5-0.2,0.8-0.4c0.2-0.2,0.4-0.4,0.5-0.6
	c0.1-0.2,0.2-0.5,0.2-0.7L170.3,57.2z"/>
<path class="st1" d="M184.6,60.1c-0.1,0.1-0.2,0.2-0.3,0.3c-0.2,0.2-0.3,0.3-0.5,0.4c-0.3,0.2-0.5,0.3-0.8,0.4
	c-0.3,0.1-0.7,0.2-1.1,0.2c-1,0-2-0.4-2.7-1.2c-0.3-0.4-0.6-0.9-0.8-1.4c-0.2-0.6-0.3-1.2-0.3-1.8c0-0.7,0.1-1.4,0.4-2
	c0.2-0.5,0.6-1,1.1-1.4c0.4-0.4,0.9-0.6,1.4-0.8c0.5-0.2,0.9-0.2,1.4-0.3c0.5,0,1,0.1,1.4,0.2c0.3,0.1,0.6,0.3,0.8,0.3v-4h1.6v11.1
	c0,0.3,0,0.6,0,0.9h-1.6L184.6,60.1z M184.6,54.7c-0.2-0.1-0.4-0.3-0.7-0.4c-0.4-0.2-0.9-0.3-1.4-0.2c-0.4,0-0.7,0.1-1.1,0.2
	c-0.3,0.1-0.6,0.4-0.9,0.6c-0.3,0.3-0.4,0.6-0.6,1c-0.1,0.4-0.2,0.9-0.2,1.3c0,0.4,0,0.8,0.1,1.1c0.1,0.3,0.2,0.6,0.4,0.9
	c0.2,0.3,0.5,0.5,0.8,0.6c0.3,0.2,0.7,0.2,1.1,0.2c0.4,0,0.7-0.1,1.1-0.2c0.3-0.1,0.5-0.3,0.7-0.6c0.2-0.2,0.3-0.5,0.4-0.8
	c0.1-0.2,0.1-0.5,0.1-0.8L184.6,54.7z"/>
<path class="st1" d="M196.9,61.5c-0.6,0-1.2-0.1-1.8-0.4c-0.5-0.2-1-0.6-1.4-1c-0.4-0.4-0.7-0.9-0.9-1.4c-0.4-1.1-0.4-2.3,0-3.4
	c0.2-0.5,0.5-1,0.9-1.4c0.4-0.4,0.9-0.7,1.4-1c0.6-0.2,1.2-0.4,1.8-0.4c1.2,0,2.3,0.5,3.2,1.3c0.4,0.4,0.7,0.9,0.9,1.4
	c0.7,1.7,0.3,3.6-0.9,4.8c-0.4,0.4-0.9,0.7-1.4,1C198.1,61.3,197.5,61.5,196.9,61.5z M196.9,60c0.4,0,0.8-0.1,1.2-0.3
	c0.3-0.2,0.6-0.4,0.9-0.7c0.2-0.3,0.4-0.6,0.5-1c0.2-0.7,0.2-1.5,0-2.2c-0.1-0.4-0.3-0.7-0.6-1c-0.2-0.3-0.5-0.5-0.9-0.7
	c-0.4-0.2-0.7-0.3-1.1-0.3c-0.4,0-0.8,0.1-1.2,0.3c-0.3,0.2-0.6,0.4-0.9,0.7c-0.2,0.3-0.4,0.6-0.6,1c-0.1,0.4-0.2,0.7-0.2,1.1
	c0,0.4,0.1,0.8,0.2,1.1c0.1,0.4,0.3,0.7,0.6,1c0.2,0.3,0.5,0.5,0.9,0.7C196.1,60,196.5,60.1,196.9,60L196.9,60z"/>
<path class="st1" d="M215.7,49.2h4c0.9,0,1.8,0.1,2.6,0.4c0.8,0.2,1.5,0.6,2.1,1.1c0.6,0.5,1,1.2,1.3,1.9c0.3,0.8,0.5,1.8,0.5,2.7
	c0,0.9-0.1,1.8-0.5,2.6c-0.3,0.7-0.8,1.4-1.3,1.9c-0.6,0.5-1.3,0.9-2.1,1.1c-0.9,0.2-1.7,0.4-2.6,0.4h-4V49.2z M219.6,59.7
	c1.5,0,2.7-0.4,3.5-1.1c0.8-0.7,1.2-1.8,1.2-3.3c0-1.5-0.4-2.6-1.2-3.3c-0.8-0.8-2-1.2-3.6-1.1h-2.2v8.9L219.6,59.7z"/>
<path class="st1" d="M232.7,49.6h1.8v1.8h-1.8V49.6z M232.8,52.9h1.6v8.4h-1.6L232.8,52.9z"/>
<path class="st1" d="M242.4,62.9c0.3,0.2,0.7,0.4,1,0.5c0.5,0.1,1,0.2,1.5,0.2c0.7,0.1,1.3-0.2,1.8-0.7c0.4-0.5,0.6-1.1,0.6-1.7v-1
	c-0.1,0.1-0.2,0.2-0.3,0.3c-0.2,0.1-0.3,0.3-0.5,0.4c-0.2,0.1-0.5,0.2-0.7,0.3c-0.3,0.1-0.7,0.1-1,0.1c-0.6,0-1.1-0.1-1.6-0.3
	c-0.5-0.2-0.9-0.5-1.2-0.9c-0.3-0.4-0.6-0.8-0.7-1.3c-0.2-0.5-0.3-1.1-0.3-1.7c0-0.6,0.1-1.2,0.3-1.8c0.2-0.5,0.5-1,1-1.4
	c0.4-0.4,0.9-0.7,1.5-0.9c0.6-0.2,1.3-0.3,1.9-0.3c0.6,0,1.3,0.1,1.9,0.2c0.5,0.1,1,0.2,1.4,0.4v8c0.1,1-0.3,2.1-1.1,2.8
	c-0.7,0.7-1.7,1-3,1c-0.7,0-1.4-0.1-2-0.3c-0.4-0.2-0.8-0.4-1.2-0.6L242.4,62.9z M247.2,54.3c-0.1,0-0.3-0.1-0.6-0.2
	c-0.4-0.1-0.8-0.1-1.1-0.1c-0.4,0-0.8,0.1-1.2,0.2c-0.7,0.3-1.3,0.9-1.6,1.6c-0.2,0.4-0.2,0.8-0.2,1.2c0,0.4,0,0.7,0.1,1.1
	c0.1,0.3,0.2,0.6,0.4,0.9c0.2,0.3,0.5,0.5,0.7,0.6c0.3,0.2,0.7,0.2,1.1,0.2c0.4,0,0.7-0.1,1-0.2c0.3-0.1,0.5-0.3,0.7-0.5
	c0.2-0.2,0.3-0.4,0.4-0.7c0.1-0.2,0.1-0.5,0.1-0.8L247.2,54.3z"/>
<path class="st1" d="M255.5,49.6h1.8v1.8h-1.8V49.6z M255.6,52.9h1.6v8.4h-1.6V52.9z"/>
<path class="st1" d="M264.8,54.2h-1.5v-1.3h1.5v-2.7h1.6v2.7h2.4v1.3h-2.4v4.1c0,0.5,0.1,1,0.3,1.4c0.2,0.3,0.5,0.4,0.9,0.4
	c0.3,0,0.5,0,0.8-0.1c0.2-0.1,0.4-0.3,0.6-0.4l0.7,1c-0.6,0.6-1.5,1-2.4,1c-0.9,0-1.5-0.2-1.9-0.7c-0.4-0.5-0.6-1.2-0.6-2.2
	L264.8,54.2z"/>
<path class="st1" d="M280.7,60.2c-0.3,0.4-0.7,0.7-1.2,0.9c-0.5,0.2-1,0.3-1.6,0.3c-0.3,0-0.7,0-1-0.1c-0.3-0.1-0.7-0.2-0.9-0.5
	c-0.3-0.2-0.5-0.5-0.7-0.8c-0.2-0.4-0.3-0.8-0.3-1.2c0-0.8,0.3-1.6,0.9-2.2c0.6-0.5,1.5-0.8,2.7-0.8c0.2,0,0.4,0,0.6,0l0.6,0l0.5,0
	c0.1,0,0.2,0,0.3,0v-0.3c0-0.5-0.2-1-0.6-1.3c-0.5-0.3-1-0.4-1.5-0.4c-0.5,0-1,0.1-1.5,0.3c-0.3,0.1-0.6,0.3-0.9,0.5l-0.8-1.1
	c0.2-0.1,0.3-0.3,0.5-0.4c0.2-0.1,0.5-0.2,0.7-0.3c0.3-0.1,0.6-0.2,0.9-0.3c0.4-0.1,0.8-0.1,1.2-0.1c0.9-0.1,1.8,0.2,2.5,0.8
	c0.6,0.6,1,1.4,0.9,2.2v4.9c0,0.3,0,0.5,0,0.8h-1.5L280.7,60.2z M280.6,57.2c-0.1,0-0.2,0-0.3,0c-0.1,0-0.3,0-0.5,0l-0.6,0
	c-0.2,0-0.4,0-0.6,0c-0.4,0-0.7,0-1.1,0.2c-0.2,0.1-0.5,0.2-0.7,0.4c-0.2,0.1-0.3,0.3-0.3,0.5c-0.1,0.2-0.1,0.4-0.1,0.6
	c0,0.4,0.1,0.8,0.5,1c0.4,0.3,0.8,0.4,1.3,0.4c0.3,0,0.6-0.1,0.9-0.2c0.3-0.1,0.5-0.2,0.7-0.4c0.2-0.2,0.4-0.4,0.5-0.6
	c0.1-0.2,0.2-0.5,0.2-0.7L280.6,57.2z"/>
<path class="st1" d="M288.9,49.2h1.6v12h-1.6V49.2z"/>
</svg>
