<?xml version="1.0" encoding="utf-8"?>
<!-- Generator: Adobe Illustrator 26.0.0, SVG Export Plug-In . SVG Version: 6.00 Build 0)  -->
<svg version="1.1" id="Camada_1" xmlns="http://www.w3.org/2000/svg" xmlns:xlink="http://www.w3.org/1999/xlink" x="0px" y="0px"
	 viewBox="0 0 300 230" style="enable-background:new 0 0 300 230;" xml:space="preserve">
<style type="text/css">
	.st0{fill:#00713C;}
	.st1{fill:#1D1D1B;}
</style>
<path class="st0" d="M166.1,81.3c0,2.2,0.1,4.4,0,6.7c-0.1,1.8-0.2,3.5-0.5,5.3c-0.4,2.5-0.9,5-1.5,7.4c-0.5,2-1.2,3.9-1.9,5.8
	c-0.7,1.8-1.4,3.5-2.3,5.2c-0.9,1.7-1.9,3.4-2.9,5.1c-0.7,1.2-1.5,2.4-2.3,3.5c-0.5,0.7-1,1.4-1.6,2c-0.8,1-1.6,1.9-2.4,2.8
	c-0.6,0.7-1.2,1.4-1.8,2c-0.3,0.2-0.6,0.4-1,0.4c-0.3,0-0.7,0-1,0c-0.7,0-1.3-0.6-1.3-1.3c-0.1-0.9,0.3-1.8,1-2.4c0.9-1,1.8-2,2.6-3
	c0.7-0.8,1.4-1.7,2.1-2.6c0.7-0.9,1.4-1.9,2-2.9c0.9-1.5,1.8-3.1,2.7-4.6c2.3-4.1,3.9-8.6,5-13.2c0.8-3,1.2-6,1.3-9.1
	c0.1-4.2,0.2-8.4,0.2-12.6c-0.1-2.8-0.9-5.6-2.3-8c-1-1.6-2.2-3.1-3.7-4.3c-1.3-1.1-2.8-2-4.3-2.7c-1.8-0.8-3.8-1.3-5.7-1.3
	c-1.6-0.1-3.2,0-4.8,0.3c-1.6,0.4-3.2,1.1-4.6,1.8c-1.5,0.8-2.9,1.9-4,3.2c-1.5,1.6-2.6,3.4-3.4,5.4c-1.1,2.5-1.2,5.2-1.2,7.9
	c0,2.7,0,5.4-0.2,8.1c-0.2,2.5-0.9,5-2.1,7.2c-0.4,0.8-0.9,1.7-1.4,2.5c-0.2,0.4-0.5,0.7-0.7,1c-0.4,0.5-0.7,0.9-1.1,1.4
	c-1,1.1-1.9,2.2-2.8,3.3c-0.1,0.1-0.2,0.2-0.3,0.4c-0.7,0.7-1.3,1.4-2,2.2c-0.3,0.4-0.7,0.6-1.2,0.5c-0.2,0-0.4,0-0.5,0
	c-0.8,0.1-1.2-0.4-1.5-0.9c-0.4-0.6-0.3-1.3,0.1-1.9c0.5-0.7,1.1-1.3,1.7-1.9c0.9-1,1.7-2,2.5-3c0.2-0.3,0.5-0.5,0.7-0.7
	c2.5-2.7,4.1-6.1,4.8-9.7c0.2-1.4,0.3-2.7,0.3-4.1c0.1-2.9,0.1-5.9,0.2-8.8c0.1-1.6,0.5-3.1,1.1-4.6c0.4-1,0.9-2.1,1.4-3.1
	c0.4-0.7,0.8-1.3,1.3-1.9c0.6-0.8,1.2-1.6,1.9-2.3c0.5-0.5,1-1,1.6-1.4c2.9-2.4,6.3-4,10.1-4.6c1.9-0.3,3.8-0.3,5.7-0.1
	c1.8,0.2,3.5,0.6,5.2,1.3c1.7,0.6,3.4,1.6,4.8,2.7c1.2,1.1,2.4,2.2,3.5,3.4c0.7,0.8,1.3,1.6,1.8,2.5c1.4,2.3,2.4,4.8,2.8,7.5
	c0.1,1.3,0.2,2.6,0.2,3.8C166.1,78.4,166.1,79.8,166.1,81.3z"/>
<path class="st0" d="M158.5,81.1c0,2.4,0.1,4.8,0,7.2c-0.2,2.5-0.6,5.1-1.1,7.6c-0.6,3.1-1.6,6.1-2.9,8.9c-0.8,1.8-1.7,3.7-2.6,5.4
	c-0.8,1.5-1.7,2.9-2.7,4.3c-1.1,1.7-2.4,3.2-3.7,4.7c-1.4,1.4-2.7,2.9-4,4.4c-0.7,0.7-1.4,1.5-2,2.2c-0.3,0.4-0.6,0.8-1,1.2
	c-0.2,0.2-0.5,0.3-0.8,0.3c-0.4,0-0.8,0-1.2,0c-0.4,0-0.8-0.3-1-0.6c-0.4-0.8-0.3-1.8,0.3-2.5c0.8-1,1.7-1.9,2.6-2.8
	c1.1-1.2,2.3-2.4,3.4-3.6c0.7-0.7,1.2-1.5,1.9-2.3c1.4-1.6,2.7-3.4,3.8-5.3c0.6-0.9,1.1-1.9,1.6-2.8c1.2-2.1,2.2-4.4,3-6.7
	c1.1-3.2,1.9-6.6,2.4-10c0.4-2.6,0.3-5.3,0.3-7.9c0-2.5,0-5.1,0-7.6c0-1.3-0.5-2.5-1.2-3.6c-0.5-0.7-1-1.4-1.6-2
	c-1.4-1.3-3.1-2.2-5-2.5c-1.4-0.2-2.9-0.1-4.3,0.4c-1.6,0.5-3,1.4-4.1,2.6c-1.6,1.8-2.5,4.1-2.4,6.6c0,2.9-0.1,5.8-0.2,8.7
	c-0.1,3-0.8,6-1.9,8.9c-0.7,1.6-1.4,3.2-2.3,4.8c-0.7,1.1-1.5,2.2-2.3,3.2c-0.7,1-1.5,1.9-2.3,2.8c-1,1.1-2,2.2-3.1,3.3
	c-0.5,0.6-1,1.2-1.6,1.7c-0.6,0.6-1.4,0.4-2,0.3c-0.6-0.2-1-0.8-1-1.5c0-0.7,0.2-1.3,0.7-1.8c0.7-0.7,1.3-1.4,2-2.2
	c1.2-1.3,2.4-2.6,3.5-4c0.6-0.7,1.1-1.4,1.6-2.2c0.7-1.1,1.4-2.1,2-3.2c0.3-0.7,0.6-1.3,0.9-2c0.8-1.9,1.4-4,1.7-6.1
	c0.2-1.8,0.2-3.7,0.3-5.5c0.1-2.4,0.1-4.8,0.2-7.2c0.1-1.9,0.8-3.7,1.9-5.3c0.6-0.9,1.2-1.7,1.9-2.5c0.9-0.8,1.9-1.6,3-2.2
	c1.3-0.8,2.7-1.3,4.2-1.4c1-0.1,2.1,0,3.2-0.1c2.3,0,4.2,0.8,6.1,1.9c1.2,0.8,2.3,1.8,3.2,2.9c1.5,1.6,2.4,3.7,2.7,5.8
	c0.2,1.9,0.2,3.9,0.2,5.8C158.5,80.2,158.5,80.7,158.5,81.1L158.5,81.1z"/>
<path class="st0" d="M150.9,81.9c0,2,0.1,3.9,0,5.9c0,1.3-0.2,2.6-0.4,3.9c-0.5,2.4-1,4.8-1.8,7.1c-0.8,2.1-1.6,4.1-2.6,6.1
	c-1,2.1-2.2,4.1-3.6,5.9c-0.8,1.1-1.7,2.2-2.6,3.3c-1.3,1.5-2.7,3-4.1,4.5l-2.2,2.4c-0.7,0.8-1.4,1.6-2.1,2.4
	c-0.5,0.6-1.2,0.6-1.9,0.4c-0.7-0.1-1.2-0.6-1.2-1.3c-0.2-0.7,0-1.5,0.6-2c1-1,1.9-2,2.9-3.1c0.7-0.8,1.5-1.6,2.2-2.4
	c1-1.1,2-2.2,2.9-3.4c0.8-0.9,1.5-1.8,2.2-2.8c0.6-0.7,1.1-1.4,1.5-2.2c0.8-1.3,1.5-2.7,2.3-4.1c1.1-2.2,2-4.4,2.6-6.8
	c0.6-2,1-4,1.3-6.1c0.5-4.4,0.2-8.9,0.3-13.3c0-0.8-0.6-1.5-1.4-1.5c-0.1,0-0.1,0-0.2,0c-0.5,0-1-0.1-1.5,0.4
	c-0.4,0.3-0.6,0.8-0.6,1.3c0,2.7-0.1,5.4-0.1,8.1c-0.1,4.2-0.9,8.4-2.4,12.4c-0.5,1.3-1,2.5-1.7,3.7c-1,1.7-2,3.4-3.1,5
	c-0.9,1.3-1.9,2.4-2.9,3.6c-0.6,0.7-1.3,1.4-1.9,2.1c-1.3,1.4-2.6,2.8-3.8,4.3c-0.6,0.6-1.1,1.3-1.7,1.9c-0.3,0.3-0.7,0.5-1.1,0.5
	c-0.3,0-0.6,0-0.8,0c-0.7-0.1-1.2-0.6-1.3-1.2c-0.1-0.8,0.1-1.7,0.8-2.2c0.8-0.7,1.5-1.5,2.1-2.3c1.3-1.4,2.6-2.8,3.8-4.2
	c1-1.2,2-2.4,3-3.6c1.1-1.4,2.1-2.8,2.9-4.4c1.6-2.8,2.7-5.8,3.5-8.9c0.8-3,0.7-6,0.8-9.1c0-1.8,0-3.6,0.1-5.4c0-1,0.1-2,0.6-2.9
	c1.1-1.7,2.5-3,4.7-3c1.2,0,2.3,0.1,3.3,0.8c0.7,0.5,1.3,1.1,1.8,1.8c0.7,0.8,0.8,1.8,0.8,2.8C150.8,78.1,150.9,80,150.9,81.9z"/>
<path class="st0" d="M194.1,73.8c-0.6-0.5-1.1-1.1-1.7-1.6c-0.5-0.5-0.9-1.2-1-1.9c-0.1-1.1,0.4-1.8,1.2-2.5
	c0.6-0.4,1.2-0.8,1.7-1.3c0.8-0.5,1-1.6,0.5-2.4c-0.1-0.1-0.2-0.2-0.3-0.3c-0.8-0.9-1.7-1.7-2.5-2.6c-1.8-1.8-3.1-4-3.7-6.4
	c-0.5-2.1-0.7-4.2-0.5-6.4c0-0.6,0.1-1.2,0.1-1.8c0-1.4-0.2-2.9-0.8-4.2c-0.8-2.2-2-4.2-3.7-5.9c-1.6-1.6-3.2-3.1-4.9-4.6
	c-0.6-0.5-1.3-0.9-2-1.2c-0.1-0.1-0.3-0.2-0.4-0.3c-0.7-0.6-0.9-1.5-0.5-2c0.5-0.6,1.4-0.8,2.1-0.5c1.4,0.7,2.8,1.6,3.9,2.7
	c1.2,1.1,2.4,2.2,3.5,3.4c0.7,0.8,1.4,1.6,2.1,2.5c1.8,2.1,2.7,4.7,3.4,7.3c0.3,1.2,0.3,2.4,0.2,3.7c-0.2,3.2-0.2,6.3,1.5,9.2
	c0.7,1.2,1.6,2.2,2.6,3.2c0.7,0.7,1.4,1.4,2.1,2.2c0.6,0.7,1,1.7,1,2.6c0,0.9-0.1,1.8-0.5,2.6c-0.5,0.9-1.2,1.7-2.1,2.3l-0.3,0.2
	c-0.8,0.5-0.5,0.5,0,1s1,0.9,1.4,1.4c1,1,1,2.6,0,3.6c-0.1,0.1-0.2,0.2-0.3,0.2c-0.5,0.3-0.4,0.6-0.2,1.1c0.8,1.4,0.6,2.6-0.8,3.6
	c-0.2,0.2-0.5,0.4-0.7,0.6c-1,0.6-1.2,0.9-0.9,2c0.3,1.1,0.7,2.1,1,3.1c0.5,1.4,0.7,2.8,0.1,4.1c-0.4,0.9-1.1,1.7-2,2.2
	c-1.4,0.9-2.9,1-4.4,1.3c-2.7,0.4-5.3,1.1-7.8,2.1c-1.7,0.7-3.4,1.5-4.7,2.8c-1.3,1.3-2.5,2.9-3.8,4.3c-0.2,0.3-0.5,0.6-0.6,1
	c-1.5,2.5-2.8,5.1-3.9,7.7c-0.7,1.8-1.5,3.6-2.2,5.4c-1,2.6-2,5.2-2.9,7.8c-0.3,0.9-0.6,1.8-0.9,2.7c-0.2,0.7-0.9,1.1-1.6,0.9
	c0,0,0,0,0,0c-0.8-0.1-1.4-0.7-1.3-1.4c0.2-1.1,0.5-2.2,0.9-3.3c0.6-1.9,1.3-3.8,2-5.6c0.7-1.8,1.4-3.5,2.1-5.3
	c0.6-1.4,1.1-2.9,1.8-4.3c0.9-1.8,1.9-3.5,2.9-5.3c0.9-1.7,2.1-3.3,3.4-4.8c1.1-1.3,2.3-2.4,3.6-3.4c1.8-1.2,3.8-2.2,6-2.9
	c2.6-0.9,5.3-1.3,7.9-1.8c0.7-0.1,1.3-0.3,1.9-0.6c0.9-0.5,1.1-1.1,0.8-2.2c-0.3-1.1-0.8-2.1-1.1-3.2c-0.5-1.6-0.5-3.1,0.3-4.6
	c0.4-0.6,1-1.2,1.7-1.4c0.4-0.2,0.4-0.4,0.2-0.7c-0.5-1-0.5-2.1,0-3.1C193.4,74.4,193.8,74.1,194.1,73.8z"/>
<path class="st0" d="M101.9,73.7c0.1-3,0.5-6,1.4-8.9c0.6-2.5,1.5-4.9,2.7-7.1c0.7-1.3,1.3-2.6,2.1-3.9c0.8-1.3,1.7-2.5,2.6-3.7
	c0.8-1.1,1.8-2.1,2.7-3.2c0.5-0.7,1.1-1.3,1.7-1.9c1-0.9,1.9-1.7,2.9-2.5c0.7-0.6,1.5-1.1,2.3-1.6c0.9-0.6,1.8-1.3,2.7-1.8
	c1.5-0.9,3-1.7,4.6-2.4c1.5-0.7,3-1.3,4.5-1.7c2-0.6,4-1,6.1-1.4c3.3-0.6,6.7-0.7,10.1-0.5c1.1,0.1,2.3,0.2,3.4,0.4
	c0.8,0.1,1.4,0.7,1.5,1.5c0.2,0.9-0.3,1.7-1,2.1c-0.2,0.1-0.4,0.1-0.7,0.1c-2.3-0.1-4.6-0.1-6.9-0.2c-3.2,0-6.4,0.4-9.4,1.2
	c-2.9,0.7-5.8,1.9-8.5,3.3c-1.7,0.9-3.3,2.1-4.9,3.1c-2.4,1.6-4.4,3.7-6.4,5.7c-0.7,0.8-1.4,1.7-2,2.6c-0.8,1.2-1.6,2.3-2.4,3.5
	c-0.2,0.3-0.3,0.6-0.5,0.9c-0.7,1.3-1.3,2.6-1.9,3.9c-0.8,2.1-1.4,4.2-2,6.3s-0.8,4.5-1,6.7c-0.1,0.7-0.1,1.4-0.7,1.9
	c-0.7,0.6-1.7,0.5-2.4,0c-0.4-0.3-0.6-0.9-0.5-1.4C102,74.3,101.9,74,101.9,73.7z"/>
<path class="st0" d="M181.3,78.9c0,1.9,0,3.8,0,5.6c-0.1,0.8-0.7,1.5-1.5,1.5c-1,0.2-1.9-0.4-2.1-1.3c0-0.2-0.1-0.4,0-0.6
	c0-1.7-0.1-3.4-0.1-5.1c-0.1-2.1,0-4.3-0.2-6.4c-0.2-2.8-0.9-5.5-2-8.1c-0.5-1.3-1.1-2.5-1.8-3.7c-0.5-1-1.2-1.9-1.8-2.8
	c-1.4-2.1-3.1-4-5-5.7c-0.9-0.8-1.9-1.6-2.9-2.2c-1.2-0.9-2.5-1.6-3.8-2.3c-2.3-1.2-4.7-2.1-7.1-2.6c-2.2-0.5-4.4-0.8-6.6-0.9
	c-1.2,0-2.3-0.1-3.5-0.2c-0.6-0.1-1.1-0.6-1.1-1.3c-0.1-0.7,0-1.4,0.6-1.9c0.3-0.2,0.6-0.3,0.9-0.3c1.9,0,3.7-0.1,5.6,0
	c1.8,0.2,3.6,0.5,5.4,0.9c3.3,0.7,6.3,2.1,9.2,3.7c1.3,0.7,2.5,1.7,3.8,2.6c2.2,1.4,3.8,3.4,5.6,5.2c0.7,0.7,1.2,1.7,1.9,2.5
	c1,1.3,1.9,2.8,2.7,4.3c2.9,5.5,4.3,11.6,4,17.8C181.3,78.1,181.3,78.5,181.3,78.9z"/>
<path class="st0" d="M145.8,25.3c1.7,0.1,3.8,0.1,5.9,0.3c2.9,0.3,5.7,0.9,8.4,1.8c2.3,0.6,4.5,1.5,6.6,2.5c1.5,0.7,2.9,1.4,4.4,2.2
	c0.9,0.5,1.8,1.1,2.6,1.7c1.3,0.9,2.6,1.7,3.8,2.7c1.1,0.9,2.1,1.9,3.2,2.9c0.6,0.5,1.1,1.1,1.7,1.7c0.6,0.7,0.6,1.6,0,2.3
	c-0.8,0.8-2.2,0.9-3.1,0c0,0,0,0,0,0c-0.8-0.8-1.6-1.7-2.5-2.5c-0.9-0.8-1.9-1.5-2.8-2.3c-0.9-0.7-1.7-1.3-2.6-1.9
	c-0.6-0.4-1.3-0.8-1.9-1.2c-1.5-0.8-3-1.6-4.4-2.3c-0.7-0.4-1.5-0.7-2.3-1c-2.3-0.9-4.7-1.7-7.1-2.2c-1.6-0.3-3.1-0.6-4.7-0.8
	c-1.9-0.2-3.8-0.3-5.7-0.3c-1.7,0-3.5,0.1-5.2,0.3c-1.8,0.2-3.6,0.6-5.4,0.9c-0.7,0.2-1.4,0-1.9-0.4c-0.7-0.6-0.5-1.4-0.4-2
	c0.2-0.6,0.7-1.1,1.3-1.2c2.2-0.6,4.5-0.9,6.8-1.1C142,25.5,143.7,25.4,145.8,25.3z"/>
<path class="st0" d="M107.5,91.5c-0.7,0.1-1.3-0.2-1.6-0.9c-0.2-0.8-0.1-1.6,0.3-2.3c0.7-0.8,1.5-1.6,2.2-2.4
	c0.5-0.6,0.8-1.5,0.8-2.3c0-3.4,0.1-6.7,0.2-10.1c0.2-2.7,0.7-5.3,1.5-7.8c0.8-2.5,1.9-5,3.2-7.3c0.9-1.7,1.9-3.2,3.2-4.6
	c0.7-0.7,1.4-1.5,2.1-2.3c0.2-0.2,0.5-0.3,0.7-0.3c0.1,0,0.3,0,0.4,0c0.5,0,1-0.1,1.4,0.3c0.4,0.6,0.6,1.4,0.4,2.1
	c-0.1,0.3-0.3,0.6-0.5,0.8c-0.8,1-1.7,1.9-2.4,2.9c-1.2,1.6-2.2,3.4-3.1,5.2c-1.4,2.7-2.3,5.6-2.7,8.7c-0.3,2.3-0.3,4.6-0.3,6.9
	c-0.1,1.8,0,3.5-0.1,5.3c0,1.3-0.3,2.6-1,3.8c-0.3,0.5-0.6,0.9-1,1.3c-0.7,0.8-1.3,1.5-2,2.3C108.5,91.5,108.5,91.5,107.5,91.5z"/>
<path class="st0" d="M173.9,80.6c-0.1,2.9-0.1,5.7-0.3,8.7c-0.1,1.5-0.3,2.9-0.5,4.4c-0.1,0.6-0.4,1-0.9,1.4
	c-0.1,0.1-0.3,0.1-0.4,0.1c-0.3,0-0.6,0-0.8,0c-0.8,0.1-1.5-0.5-1.5-1.3c0-0.1,0-0.1,0-0.2c0-0.8,0.1-1.7,0.2-2.5
	c0.2-2.4,0.3-4.8,0.3-7.2c0-2.9,0-5.7,0-8.7c0-2.3-0.4-4.5-1.2-6.6c-0.6-1.5-1.2-3-2-4.4c-0.7-1.1-1.4-2.2-2.3-3.2
	c-0.8-1-1.8-2-2.7-2.9c-0.8-0.8-0.5-2.6,0.5-3c0.8-0.2,1.6-0.4,2.3,0.3c0.9,1,1.9,1.8,2.8,2.8c0.7,0.8,1.4,1.7,2,2.7
	c0.7,1.1,1.3,2.2,1.9,3.4c1.2,2.4,2,5,2.4,7.6C173.9,74.8,173.8,77.7,173.9,80.6z"/>
<path class="st0" d="M145.3,17.9c1.5,0,3.1-0.1,4.6,0c2.2,0.2,4.3,0.5,6.5,0.8c0.9,0.1,1.7,0.4,2.6,0.5c0.6,0.1,1.2,0.5,1.4,1.2
	c0.3,1-0.1,2.3-1,2.4c-0.7,0.1-1.3,0.1-2,0c-2.9-0.6-5.9-1-8.9-1.1c-2.4-0.1-4.8-0.1-7.2,0c-3.7,0.2-7.4,0.9-10.9,1.9
	c-2.4,0.6-4.7,1.5-6.9,2.5c-0.6,0.3-1.2,0.6-1.8,0.8c-0.7,0.1-1.4,0.1-2,0c-0.7-0.2-1.1-1.6-0.8-2.3c0.2-0.5,0.6-1,1.2-1.2
	c1.6-0.7,3.3-1.3,4.9-2c2.8-1.1,5.7-1.9,8.7-2.5c3.5-0.7,7.1-1.1,10.7-0.9C144.7,17.9,145,17.9,145.3,17.9z"/>
<path class="st0" d="M117,75.7c0-3.3,0.7-6.6,1.9-9.7c0.5-1.3,1.1-2.5,1.8-3.7c0.7-1.2,1.6-2.3,2.4-3.4c0.7-0.9,1.4-1.8,2.2-2.6
	c1.2-1.1,2.5-2.1,3.8-3.1c1.1-0.8,2.3-1.6,3.5-2.2c1.3-0.6,2.6-1.1,3.9-1.6c1.4-0.4,2.9-0.8,4.4-1c0.7-0.2,1.4,0,1.9,0.5
	c0.8,0.7,0.7,2.9-0.8,3.2c-1.1,0.3-2.3,0.5-3.4,0.8s-2.2,0.7-3.2,1.2c-0.7,0.3-1.4,0.6-2,1c-1,0.5-2,1.1-2.9,1.8
	c-0.9,0.7-1.8,1.5-2.6,2.4c-1,1-1.9,2-2.7,3.1c-0.7,1.1-1.4,2.2-1.9,3.4c-1.5,3-2.4,6.3-2.5,9.7c0,0.6-0.1,1.2-0.2,1.9
	c-0.1,0.6-0.6,1-1.2,0.9c-0.2,0-0.5,0-0.7,0c-1.1,0.1-1.6-0.6-1.6-1.6C117,76.3,117,76,117,75.7z"/>
<path class="st0" d="M106.5,48c-0.7,0.1-1.4-0.3-1.6-1c-0.3-0.7-0.3-1.5,0.2-2.1c0.9-1,1.7-2,2.6-3c0.6-0.7,1.2-1.4,1.8-2
	c0.9-0.9,1.9-1.7,2.9-2.5c0.8-0.7,1.6-1.4,2.4-2c1.4-1,2.7-1.9,4.2-2.8c1.4-0.9,2.9-1.6,4.3-2.4c0.8-0.4,1.6-0.8,2.5-1.1
	c0.7-0.3,1.5-0.1,2,0.4c1,0.7,0.7,2.6-0.5,3.2c-1.4,0.6-2.8,1.3-4.2,2c-0.8,0.4-1.6,1-2.5,1.4c-0.7,0.5-1.5,0.9-2.2,1.4
	c-0.7,0.5-1.5,1.1-2.2,1.6c-2.3,1.7-4.2,3.7-6.1,5.7c-0.7,0.7-1.3,1.6-2,2.4C107.5,48,107.4,48,106.5,48z"/>
<path class="st0" d="M186.7,63.2c0,1.1-0.5,1.7-1.6,1.9c-0.9,0.1-1.8-0.4-2.1-1.3c-0.9-2.5-2-4.9-3.3-7.3c-0.7-1.2-1.4-2.3-2.3-3.4
	c-0.9-1.2-2-2.4-2.9-3.6c-0.5-0.6-0.5-1.4-0.2-2.1c0.2-0.6,0.8-1,1.4-1c0.6-0.1,1.3,0.1,1.7,0.6c0.8,0.9,1.6,1.8,2.3,2.7
	c1,1.3,1.9,2.5,2.8,3.9c0.7,1.2,1.4,2.4,2,3.7c0.7,1.5,1.3,3,1.9,4.5C186.6,62.3,186.7,62.8,186.7,63.2z"/>
<path class="st0" d="M120.7,84.1c0,2.4-0.6,4.7-1.8,6.7c-0.6,1-1.3,2-2.1,2.9c-0.8,1-1.6,1.9-2.4,2.8c-0.5,0.5-1,1-1.5,1.5
	c-0.2,0.3-0.4,0.5-0.6,0.7c-0.8,0.5-1.8,0.5-2.6,0c-0.2-0.1-0.3-0.3-0.4-0.5c-0.3-0.7,0-2.1,0.5-2.7c0.9-0.9,1.8-1.8,2.6-2.8
	c1-1.2,2.2-2.3,2.9-3.7c0.9-1.6,1.4-3.5,1.5-5.4c0-0.8,0.1-1.5,0.9-1.9c0.7-0.3,1.4-0.3,2.1,0c0.6,0.3,0.8,0.9,0.8,1.5
	C120.7,83.6,120.7,83.9,120.7,84.1z"/>
<path class="st0" d="M159,35.2c0.8-0.2,1.6,0.4,2.5,0.7c1.2,0.5,2.4,1,3.6,1.6c1.4,0.7,2.7,1.6,4.1,2.4c0.7,0.4,1.3,1,2,1.3
	c0.4,0.2,0.7,0.6,0.8,1c0.3,0.6,0.2,1.3-0.1,1.9c-0.2,0.3-0.6,0.5-1,0.6c-0.4,0.1-0.9,0.1-1.3,0c-0.2,0-0.4-0.1-0.5-0.2
	c-1.1-0.7-2.1-1.4-3.1-2.1c-1.1-0.6-2.1-1.3-3.2-1.8s-2.2-1-3.4-1.4c-0.5-0.2-1.1-0.4-1.6-0.7c-0.5-0.2-0.8-0.7-0.7-1.2
	c0-0.2,0-0.5,0-0.7c-0.1-0.7,0.5-1.4,1.2-1.4c0.1,0,0.2,0,0.2,0L159,35.2z"/>
<path class="st0" d="M136,41.9c0.8-0.2,1.4,0.2,1.8,0.8c0.4,0.5,0.4,1.2,0.1,1.7c-0.3,0.4-0.7,0.8-1.2,1c-1,0.5-2.1,0.7-3.1,1.2
	c-1.3,0.6-2.6,1.2-3.8,1.9c-1,0.5-1.9,1.1-2.8,1.7c-0.7,0.4-1.6,0.3-2.3-0.2c-0.5-0.3-0.7-1.4-0.5-2c0.1-0.5,0.5-0.9,0.9-1.2
	c1.1-0.6,2.2-1.3,3.3-1.9c2.1-1.3,4.4-2,6.7-2.8C135.3,41.9,135.7,41.8,136,41.9z"/>
<path class="st0" d="M158.6,52.4c0,1.4-1,2.3-2.4,1.9c-0.6-0.2-1.2-0.4-1.7-0.7c-1.8-0.7-3.6-1.2-5.5-1.5c-0.6,0-1.1-0.4-1.4-0.9
	c-0.3-0.6-0.3-1.3,0-1.9c0.2-0.6,0.8-1,1.5-1c0.8,0.1,1.7,0.2,2.5,0.4c1.9,0.4,3.8,1,5.5,1.8c0.3,0.2,0.7,0.4,1,0.6
	C158.4,51.5,158.6,51.9,158.6,52.4z"/>
<path class="st0" d="M164.5,23.5c-0.2-1.4,1.3-2.2,2.7-1.6c1.8,0.8,3.5,1.6,5.3,2.4c0.7,0.2,1.1,0.8,1.2,1.5
	c0.1,0.9-0.3,1.9-1.3,2.1c-0.5,0.1-1,0.1-1.5-0.1c-1.7-0.8-3.5-1.6-5.2-2.4C165.1,25.1,164.4,24.5,164.5,23.5z"/>
<path class="st0" d="M10.8,153.8h10.1c1.4,0,2.8,0.2,4.2,0.7c1.1,0.4,2.1,1,3,1.8c0.8,0.8,1.4,1.7,1.8,2.7c0.4,1.1,0.6,2.2,0.6,3.3
	c0,1.6-0.4,3.2-1.2,4.6c-0.8,1.3-1.9,2.4-3.3,3.2l6.1,10.9h-6.8L20.2,171h-3.4v10.1h-6V153.8z M20.6,166.1c2.1,0,3.7-1.7,3.7-3.8
	c0-0.9-0.4-1.8-1-2.5c-0.7-0.7-1.7-1-2.7-1h-3.8v7.2L20.6,166.1z"/>
<path class="st0" d="M33.6,153.8h18.7v5.4H39.7v5.3h9.7v5.2h-9.7v5.9h13.4v5.5H33.6V153.8z"/>
<path class="st0" d="M55.2,153.8h10.3c2,0,3.9,0.3,5.8,0.8c1.7,0.5,3.3,1.3,4.6,2.5c1.3,1.2,2.4,2.7,3,4.3c0.8,2,1.1,4.1,1.1,6.2
	c0,2-0.3,4-1.1,5.9c-0.7,1.6-1.7,3.1-3.1,4.2c-1.3,1.2-2.9,2-4.6,2.5c-1.9,0.6-3.9,0.9-5.8,0.8H55.2V153.8z M65.2,175.6
	c2.7,0,4.8-0.7,6.3-2.1c1.5-1.4,2.2-3.4,2.2-5.9c0-1.2-0.2-2.3-0.5-3.4c-0.3-1-0.8-1.9-1.6-2.6c-0.7-0.8-1.6-1.3-2.6-1.7
	c-1.2-0.4-2.5-0.6-3.8-0.6h-3.8v16.4H65.2z"/>
<path class="st0" d="M82.5,153.8h18.7v5.4H88.7v5.3h9.7v5.2h-9.7v5.9h13.4v5.5H82.5V153.8z"/>
<path class="st0" d="M113.6,153.8h10.2c1.5,0,2.9,0.2,4.3,0.6c1.1,0.3,2,0.9,2.9,1.6c0.7,0.6,1.3,1.4,1.6,2.3
	c0.3,0.9,0.5,1.8,0.5,2.7c0,0.8-0.1,1.6-0.5,2.3c-0.3,0.6-0.7,1.2-1.1,1.7c-0.4,0.4-0.8,0.8-1.4,1.1c-0.4,0.2-0.8,0.4-1.2,0.5
	c0.6,0.1,1.2,0.3,1.7,0.6c0.7,0.3,1.3,0.7,1.8,1.2c0.6,0.6,1.1,1.3,1.4,2c0.4,0.9,0.6,1.9,0.6,2.8c0,1.2-0.2,2.5-0.8,3.6
	c-0.5,1-1.2,1.8-2.1,2.4c-1,0.7-2.2,1.1-3.4,1.4c-1.5,0.3-2.9,0.4-4.4,0.4h-10.2V153.8z M123.3,164.7c0.5,0,0.9-0.1,1.4-0.2
	c0.4-0.1,0.8-0.3,1.2-0.5c0.4-0.2,0.6-0.6,0.8-1c0.2-0.4,0.3-0.9,0.3-1.4c0-0.5-0.1-1-0.3-1.5c-0.2-0.4-0.5-0.7-0.9-1
	c-0.4-0.2-0.8-0.4-1.2-0.5c-0.4-0.1-0.9-0.1-1.3-0.1h-3.6v6.1L123.3,164.7z M123.7,176.3c0.5,0,1,0,1.5-0.1c0.5-0.1,1-0.2,1.5-0.5
	c0.5-0.3,0.9-0.6,1.2-1.1c0.3-0.6,0.5-1.2,0.5-1.9c0-0.6-0.1-1.3-0.5-1.8c-0.3-0.5-0.7-0.8-1.1-1.1c-0.5-0.3-1-0.4-1.5-0.5
	c-0.5-0.1-1-0.1-1.5-0.1h-4v7.1H123.7z"/>
<path class="st0" d="M136.7,153.8h10.1c1.4,0,2.8,0.2,4.2,0.7c1.1,0.4,2.1,1,3,1.8c0.8,0.8,1.4,1.7,1.8,2.7c0.4,1.1,0.6,2.2,0.6,3.3
	c0,1.6-0.4,3.2-1.2,4.6c-0.8,1.3-1.9,2.4-3.3,3.2l6.1,10.9h-6.8l-5.1-10.1h-3.4v10.1h-6V153.8z M146.5,166.1c2.1,0,3.7-1.7,3.7-3.8
	c0-0.9-0.4-1.8-1-2.5c-0.7-0.7-1.7-1-2.7-1h-3.8v7.2L146.5,166.1z"/>
<path class="st0" d="M167.3,153.8h6.8l10,27.3h-6.7l-2.1-6.3h-9.6l-2.1,6.3h-6.5L167.3,153.8z M173.8,170l-3.3-10.3l-3.4,10.3H173.8
	z"/>
<path class="st0" d="M187.1,172.9c0.4,0.4,0.8,0.8,1.2,1.2c0.5,0.4,1,0.8,1.6,1.1c0.6,0.3,1.2,0.6,1.9,0.8c0.7,0.2,1.5,0.3,2.2,0.3
	c0.5,0,0.9-0.1,1.4-0.2c0.5-0.1,0.9-0.3,1.3-0.6c0.4-0.3,0.7-0.6,0.9-1c0.2-0.4,0.4-0.8,0.3-1.2c0-1-0.6-1.9-1.5-2.4
	c-1.5-0.7-3-1.3-4.7-1.7c-1-0.2-2-0.6-2.9-1.1c-0.8-0.4-1.6-1-2.3-1.7c-0.6-0.6-1.1-1.4-1.5-2.2c-0.4-0.9-0.5-1.9-0.5-2.8
	c0-1.1,0.2-2.2,0.6-3.2c0.4-1,1.1-1.9,1.9-2.7c0.9-0.8,2-1.4,3.1-1.8c1.4-0.5,2.9-0.7,4.4-0.7c1.2,0,2.5,0.1,3.7,0.4
	c0.9,0.2,1.9,0.6,2.7,1c0.7,0.3,1.3,0.7,1.8,1.2c0.5,0.4,0.8,0.8,1.1,1l-3.6,3.9c-0.3-0.2-0.6-0.5-1-0.8c-0.4-0.3-0.9-0.6-1.3-0.8
	c-0.5-0.3-1.1-0.5-1.6-0.6c-0.6-0.2-1.2-0.2-1.9-0.2c-0.4,0-0.9,0.1-1.3,0.2c-0.4,0.1-0.8,0.3-1.1,0.6c-0.3,0.2-0.6,0.5-0.8,0.8
	c-0.2,0.3-0.3,0.6-0.3,1c0,0.9,0.5,1.7,1.5,2.3c1.3,0.7,2.6,1.2,4.1,1.4c1,0.2,2,0.6,3,1c0.9,0.4,1.8,1,2.6,1.7
	c0.8,0.7,1.4,1.6,1.8,2.5c0.5,1.1,0.7,2.4,0.7,3.6c0,1.2-0.3,2.3-0.8,3.4c-0.6,1-1.3,2-2.2,2.7c-1,0.8-2.1,1.4-3.3,1.8
	c-1.3,0.4-2.7,0.6-4.1,0.6c-1.3,0-2.5-0.1-3.7-0.4c-1-0.2-2.1-0.6-3-1c-0.9-0.4-1.7-0.9-2.4-1.4c-0.7-0.5-1.3-1.1-1.9-1.7
	L187.1,172.9z"/>
<path class="st0" d="M207.2,153.8h6.2v27.3h-6.2V153.8z"/>
<path class="st0" d="M216.6,153.8h6.2v21.8h13v5.5h-19.2V153.8z"/>
<path class="st0" d="M246.9,153.8h10.1c1.4,0,2.8,0.2,4.2,0.7c1.1,0.4,2.1,1,3,1.8c0.8,0.8,1.4,1.7,1.8,2.7c0.4,1.1,0.6,2.2,0.6,3.3
	c0,1.6-0.4,3.2-1.2,4.6c-0.8,1.3-1.9,2.4-3.3,3.2l6.1,10.9h-6.8l-5.1-10.1h-3.4v10.1h-6V153.8z M256.7,166.1c2.1,0,3.7-1.7,3.7-3.8
	c0-0.9-0.4-1.8-1-2.5c-0.7-0.7-1.7-1-2.7-1h-3.8v7.2L256.7,166.1z"/>
<path class="st0" d="M269.7,153.8h9.9c1.5,0,2.9,0.2,4.3,0.7c1.1,0.4,2.1,1.1,3,1.9c0.8,0.8,1.4,1.8,1.7,2.8
	c0.4,1.1,0.6,2.2,0.6,3.3c0,1.3-0.2,2.6-0.8,3.9c-0.5,1.1-1.2,2-2,2.8c-0.9,0.7-1.9,1.3-3,1.7c-1.1,0.4-2.3,0.6-3.5,0.6h-4.2v9.6h-6
	V153.8z M279.3,166.5c1,0.1,2-0.3,2.7-1c0.7-0.7,1-1.7,1-2.7c0-1-0.3-2-1-2.8c-0.7-0.7-1.7-1.1-2.7-1.1h-3.6v7.7L279.3,166.5z"/>
<path class="st1" d="M25.4,204.7c-0.2,0.3-0.5,0.6-0.8,0.9c-0.4,0.4-0.8,0.7-1.3,1c-0.5,0.3-1.1,0.6-1.7,0.8
	c-0.7,0.2-1.4,0.3-2.1,0.3c-1,0-2.1-0.2-3-0.6c-0.9-0.4-1.7-0.9-2.4-1.6c-0.7-0.7-1.2-1.6-1.5-2.5c-0.7-2-0.7-4.2,0-6.2
	c0.3-0.9,0.9-1.8,1.5-2.5c0.7-0.7,1.5-1.3,2.4-1.7c1-0.4,2-0.6,3.1-0.6c1.3,0,2.7,0.3,3.8,1c0.4,0.3,0.9,0.6,1.2,1
	c0.3,0.3,0.6,0.6,0.8,1l-1.5,1.3c-0.2-0.3-0.4-0.5-0.6-0.8c-0.3-0.3-0.6-0.5-0.9-0.8c-0.4-0.2-0.8-0.4-1.2-0.5
	c-0.5-0.2-1-0.2-1.6-0.2c-0.8,0-1.5,0.2-2.2,0.5c-0.6,0.3-1.2,0.7-1.7,1.3c-0.5,0.6-0.8,1.2-1,1.9c-0.2,0.7-0.4,1.5-0.4,2.3
	c0,0.8,0.1,1.6,0.4,2.3c0.2,0.7,0.6,1.3,1,1.9c0.5,0.5,1,0.9,1.6,1.2c0.7,0.3,1.4,0.5,2.2,0.5c0.6,0,1.2-0.1,1.7-0.3
	c0.4-0.1,0.9-0.4,1.2-0.6c0.3-0.2,0.6-0.5,0.8-0.7c0.2-0.2,0.4-0.5,0.6-0.6L25.4,204.7z"/>
<path class="st1" d="M42.8,205.8c-0.2,0.2-0.3,0.4-0.5,0.5c-0.3,0.2-0.6,0.4-0.9,0.6c-0.4,0.2-0.9,0.4-1.4,0.5
	c-0.6,0.2-1.2,0.2-1.8,0.2c-0.8,0-1.5-0.1-2.2-0.4c-0.7-0.3-1.2-0.6-1.7-1.1c-0.5-0.5-0.9-1.1-1.1-1.8c-0.3-0.7-0.4-1.5-0.4-2.3
	c0-0.7,0.1-1.5,0.4-2.1c0.2-0.6,0.6-1.2,1.1-1.7c0.5-0.5,1-0.9,1.7-1.2c0.7-0.3,1.4-0.4,2.1-0.4c0.8,0,1.6,0.2,2.3,0.5
	c0.6,0.3,1.2,0.8,1.6,1.4c0.4,0.6,0.7,1.3,0.9,2c0.2,0.7,0.3,1.5,0.3,2.3h-8.3c0,0.4,0.1,0.9,0.3,1.3c0.2,0.4,0.4,0.7,0.8,1
	c0.3,0.3,0.7,0.5,1.1,0.7c0.4,0.2,0.8,0.2,1.3,0.2c0.8,0,1.5-0.1,2.2-0.5c0.5-0.2,0.9-0.5,1.2-0.9L42.8,205.8z M41,201.2
	c0-0.8-0.3-1.5-0.9-2.1c-0.6-0.6-1.4-0.9-2.2-0.8c-0.4,0-0.9,0.1-1.3,0.2c-0.4,0.2-0.7,0.4-1,0.7c-0.3,0.3-0.5,0.6-0.6,0.9
	c-0.1,0.3-0.2,0.7-0.2,1.1L41,201.2z"/>
<path class="st1" d="M50.9,199v-1.1c0-0.3,0-0.7,0-1h1.9l0.1,1.7c0.1-0.2,0.3-0.4,0.5-0.6c0.2-0.2,0.4-0.4,0.7-0.6
	c0.3-0.2,0.6-0.4,1-0.5c0.4-0.1,0.8-0.2,1.3-0.2c0.2,0,0.4,0,0.6,0c0.2,0,0.4,0.1,0.5,0.1l-0.5,1.9c-1.1-0.4-2.4-0.1-3.2,0.8
	c-0.6,0.6-0.9,1.4-0.9,2.3v5.5h-2L50.9,199z"/>
<path class="st1" d="M65.7,198.6h-1.9v-1.7h1.9v-3.4h2v3.4h3.1v1.7h-3.1v5.2c-0.1,0.6,0.1,1.2,0.4,1.8c0.3,0.3,0.7,0.5,1.1,0.5
	c0.3,0,0.7-0.1,1-0.2c0.3-0.1,0.5-0.3,0.8-0.5l0.9,1.2c-0.8,0.8-1.9,1.2-3,1.2c-1.1,0-1.9-0.3-2.4-0.9c-0.5-0.6-0.8-1.5-0.8-2.8
	L65.7,198.6z"/>
<path class="st1" d="M79,192.8h2.3v2.3H79V192.8z M79.1,196.9h2v10.5h-2V196.9z"/>
<path class="st1" d="M90.5,198.6h-1.9v-1.7h1.9V196c0-0.6,0.1-1.2,0.3-1.8c0.2-0.5,0.5-0.9,0.8-1.3c0.3-0.3,0.7-0.6,1.2-0.7
	c0.4-0.2,0.9-0.2,1.4-0.2c0.6,0,1.1,0.1,1.6,0.3c0.6,0.2,1.1,0.5,1.5,0.9l-1,1.3c-0.5-0.4-1.1-0.7-1.8-0.7c-0.5,0-1,0.2-1.4,0.6
	c-0.4,0.4-0.5,1-0.5,1.9v0.7h3v1.7h-3v8.8h-2V198.6z"/>
<path class="st1" d="M103.4,192.8h2.3v2.3h-2.3V192.8z M103.5,196.9h2v10.5h-2V196.9z"/>
<path class="st1" d="M123.1,205.9c-0.5,0.5-1.1,1-1.7,1.3c-0.8,0.3-1.6,0.5-2.4,0.5c-0.8,0-1.6-0.1-2.3-0.4
	c-1.3-0.5-2.4-1.6-2.8-2.9c-0.3-0.7-0.4-1.5-0.4-2.2c0-0.7,0.1-1.5,0.4-2.2c1.2-2.9,4.5-4.2,7.4-2.9c0,0,0,0,0,0
	c0.7,0.3,1.3,0.7,1.7,1.3l-1.3,1.3c-0.3-0.4-0.7-0.7-1.1-0.9c-0.5-0.2-1-0.3-1.6-0.3c-0.5,0-1,0.1-1.4,0.3c-0.4,0.2-0.8,0.5-1.1,0.8
	c-0.3,0.4-0.5,0.8-0.7,1.2c-0.2,0.5-0.2,0.9-0.2,1.4c0,0.5,0.1,1,0.2,1.4c0.1,0.4,0.4,0.9,0.7,1.2c0.3,0.4,0.7,0.6,1.1,0.8
	c0.4,0.2,0.9,0.3,1.4,0.3c0.6,0,1.1-0.1,1.7-0.3c0.5-0.2,0.9-0.5,1.2-1L123.1,205.9z"/>
<path class="st1" d="M137.3,206.1c-0.4,0.5-0.9,0.9-1.5,1.2c-0.6,0.3-1.3,0.4-2,0.4c-0.4,0-0.9-0.1-1.3-0.2
	c-0.4-0.1-0.8-0.3-1.2-0.6c-0.4-0.3-0.7-0.6-0.9-1c-0.2-0.5-0.3-1-0.3-1.5c0-1,0.4-2,1.2-2.7c0.8-0.7,1.9-1,3.4-1c0.2,0,0.5,0,0.8,0
	l0.8,0l0.6,0c0.2,0,0.3,0,0.4,0v-0.4c0-0.6-0.2-1.2-0.7-1.6c-0.6-0.4-1.2-0.5-1.9-0.5c-0.7,0-1.3,0.1-1.9,0.3
	c-0.4,0.2-0.8,0.4-1.2,0.7l-1-1.4c0.2-0.2,0.4-0.3,0.7-0.5c0.3-0.2,0.6-0.3,0.9-0.4c0.4-0.1,0.8-0.2,1.2-0.3c0.5-0.1,1-0.1,1.5-0.1
	c1.1-0.1,2.3,0.3,3.2,1c0.8,0.7,1.2,1.7,1.2,2.8v6.1c0,0.4,0,0.7,0,0.9h-1.9L137.3,206.1z M137.3,202.4l-0.3-0.1
	c-0.2,0-0.4,0-0.6-0.1l-0.7,0c-0.3,0-0.5,0-0.7,0c-0.5,0-0.9,0.1-1.4,0.2c-0.3,0.1-0.6,0.3-0.8,0.5c-0.2,0.2-0.3,0.4-0.4,0.7
	c-0.1,0.2-0.1,0.5-0.1,0.7c0,0.5,0.2,1,0.6,1.3c0.5,0.3,1,0.5,1.6,0.4c0.4,0,0.8-0.1,1.1-0.2c0.3-0.1,0.7-0.3,1-0.5
	c0.3-0.2,0.5-0.5,0.6-0.8c0.2-0.3,0.2-0.6,0.2-0.9L137.3,202.4z"/>
<path class="st1" d="M155.2,206c-0.1,0.1-0.2,0.2-0.4,0.4c-0.2,0.2-0.4,0.4-0.7,0.6c-0.3,0.2-0.7,0.4-1,0.5
	c-0.4,0.1-0.9,0.2-1.3,0.2c-1.3,0-2.5-0.5-3.4-1.5c-0.4-0.5-0.8-1.1-1-1.7c-0.2-0.7-0.4-1.5-0.3-2.2c0-0.9,0.2-1.8,0.5-2.6
	c0.3-0.7,0.8-1.3,1.3-1.8c0.5-0.4,1.1-0.8,1.7-1c0.6-0.2,1.2-0.3,1.8-0.3c0.6,0,1.2,0.1,1.8,0.3l1,0.4v-5h2v13.9c0,0.3,0,0.7,0,1.1
	h-1.9L155.2,206z M155.2,199.2c-0.3-0.2-0.5-0.3-0.8-0.5c-0.5-0.2-1.1-0.3-1.7-0.3c-0.5,0-0.9,0.1-1.4,0.3c-0.4,0.2-0.8,0.4-1.1,0.8
	c-0.3,0.4-0.6,0.8-0.7,1.2c-0.2,0.5-0.3,1.1-0.3,1.6c0,0.5,0.1,0.9,0.2,1.4c0.1,0.4,0.3,0.8,0.6,1.2c0.3,0.3,0.6,0.6,1,0.8
	c0.4,0.2,0.9,0.3,1.4,0.3c0.5,0,0.9-0.1,1.4-0.3c0.4-0.2,0.7-0.4,0.9-0.7c0.2-0.3,0.4-0.6,0.5-1c0.1-0.3,0.2-0.6,0.2-1L155.2,199.2z
	"/>
<path class="st1" d="M170.7,207.7c-0.8,0-1.5-0.1-2.2-0.4c-0.7-0.3-1.2-0.7-1.7-1.2c-0.5-0.5-0.9-1.1-1.1-1.8
	c-0.6-1.4-0.6-2.9,0-4.3c0.3-0.7,0.7-1.3,1.1-1.8c0.5-0.5,1.1-0.9,1.7-1.2c1.4-0.6,3-0.6,4.4,0c0.7,0.3,1.3,0.7,1.8,1.2
	c0.5,0.5,0.9,1.1,1.2,1.8c0.6,1.4,0.6,2.9,0,4.3c-0.3,0.7-0.7,1.3-1.2,1.8C173.6,207.1,172.2,207.7,170.7,207.7L170.7,207.7z
	 M170.7,205.9c0.5,0,1-0.1,1.5-0.3c0.4-0.2,0.8-0.5,1.1-0.9c0.3-0.4,0.5-0.8,0.7-1.2c0.3-0.9,0.3-1.9,0-2.8
	c-0.2-0.4-0.4-0.9-0.7-1.2c-0.3-0.4-0.7-0.7-1.1-0.9c-0.4-0.2-0.9-0.3-1.4-0.3c-0.5,0-1,0.1-1.5,0.3c-0.4,0.2-0.8,0.5-1.1,0.9
	c-0.3,0.4-0.5,0.8-0.7,1.2c-0.2,0.5-0.2,0.9-0.2,1.4c0,0.5,0.1,0.9,0.2,1.4c0.2,0.4,0.4,0.9,0.7,1.2c0.3,0.4,0.7,0.7,1.1,0.9
	C169.7,205.8,170.2,205.9,170.7,205.9z"/>
<path class="st1" d="M194.2,192.4h5c1.1,0,2.2,0.1,3.3,0.4c0.9,0.3,1.8,0.7,2.6,1.4c0.7,0.6,1.3,1.4,1.7,2.4
	c0.4,1.1,0.6,2.2,0.6,3.4c0,1.1-0.2,2.3-0.6,3.3c-0.4,0.9-1,1.7-1.7,2.3c-0.8,0.6-1.6,1.1-2.6,1.4c-1.1,0.3-2.2,0.5-3.3,0.5h-5
	V192.4z M199.1,205.4c1.9,0,3.3-0.5,4.4-1.4s1.6-2.3,1.6-4.1c0-1.8-0.5-3.2-1.5-4.2c-1-1-2.5-1.4-4.5-1.4h-2.7v11.1L199.1,205.4z"/>
<path class="st1" d="M215.5,192.8h2.3v2.3h-2.3V192.8z M215.7,196.9h2v10.5h-2V196.9z"/>
<path class="st1" d="M227.6,209.5c0.4,0.3,0.8,0.5,1.3,0.6c0.6,0.2,1.2,0.3,1.8,0.3c0.8,0.1,1.7-0.2,2.3-0.8
	c0.5-0.6,0.8-1.4,0.7-2.2v-1.3l-0.4,0.4c-0.2,0.2-0.4,0.3-0.7,0.5c-0.3,0.2-0.6,0.3-1,0.4c-0.4,0.1-0.8,0.2-1.2,0.2
	c-0.7,0-1.4-0.1-2-0.4c-0.6-0.2-1.1-0.6-1.5-1.1c-0.4-0.5-0.7-1-0.9-1.6c-0.2-0.7-0.3-1.4-0.3-2.1c0-0.8,0.1-1.5,0.4-2.2
	c0.3-0.7,0.7-1.3,1.2-1.8c0.5-0.5,1.2-0.9,1.9-1.2c0.8-0.3,1.6-0.4,2.4-0.4c0.8,0,1.6,0.1,2.4,0.2c0.6,0.1,1.2,0.3,1.8,0.5v10
	c0.1,1.3-0.4,2.6-1.3,3.5c-0.9,0.8-2.1,1.2-3.7,1.2c-0.9,0-1.7-0.1-2.5-0.3c-0.5-0.2-1.1-0.5-1.5-0.8L227.6,209.5z M233.7,198.7
	l-0.7-0.2c-0.5-0.1-1-0.1-1.4-0.1c-0.5,0-1.1,0.1-1.6,0.3c-0.5,0.2-0.9,0.4-1.2,0.8c-0.3,0.3-0.6,0.8-0.8,1.2
	c-0.2,0.5-0.3,1-0.3,1.5c0,0.5,0.1,0.9,0.2,1.4c0.1,0.4,0.3,0.8,0.5,1.1c0.3,0.3,0.6,0.6,0.9,0.7c0.4,0.2,0.9,0.3,1.4,0.3
	c0.4,0,0.9-0.1,1.3-0.2c0.3-0.1,0.7-0.3,0.9-0.6c0.2-0.2,0.4-0.5,0.5-0.8c0.1-0.3,0.2-0.6,0.2-1L233.7,198.7z"/>
<path class="st1" d="M244.1,192.8h2.3v2.3h-2.3V192.8z M244.2,196.9h2v10.5h-2L244.2,196.9z"/>
<path class="st1" d="M255.7,198.6h-1.9v-1.7h1.9v-3.4h2v3.4h3.1v1.7h-3.1v5.2c-0.1,0.6,0.1,1.2,0.4,1.7c0.3,0.3,0.7,0.5,1.1,0.5
	c0.3,0,0.7-0.1,1-0.2c0.3-0.1,0.5-0.3,0.8-0.5l0.9,1.2c-0.4,0.4-0.8,0.7-1.3,0.9c-0.5,0.2-1.1,0.3-1.6,0.3c-1.1,0-1.9-0.3-2.4-0.9
	c-0.5-0.6-0.8-1.5-0.8-2.8L255.7,198.6z"/>
<path class="st1" d="M275.6,206.1c-0.4,0.5-0.9,0.9-1.5,1.2c-0.6,0.3-1.3,0.4-2,0.4c-0.4,0-0.9-0.1-1.3-0.2
	c-0.4-0.1-0.8-0.3-1.2-0.6c-0.4-0.3-0.6-0.6-0.9-1c-0.2-0.5-0.3-1-0.3-1.5c0-1,0.4-2,1.2-2.7c0.8-0.7,1.9-1,3.4-1c0.2,0,0.5,0,0.8,0
	l0.8,0l0.6,0c0.2,0,0.3,0,0.4,0v-0.4c0.1-0.6-0.2-1.3-0.7-1.7c-0.6-0.4-1.2-0.5-1.9-0.5c-0.7,0-1.3,0.1-1.9,0.3
	c-0.4,0.2-0.8,0.4-1.2,0.7l-1-1.4c0.2-0.2,0.4-0.3,0.7-0.5c0.3-0.2,0.6-0.3,0.9-0.4c0.4-0.1,0.8-0.2,1.2-0.3c0.5-0.1,1-0.1,1.5-0.1
	c1.1-0.1,2.3,0.3,3.2,1c0.8,0.7,1.2,1.7,1.2,2.8v6.2c0,0.4,0,0.7,0,0.9h-1.9L275.6,206.1z M275.6,202.4l-0.3-0.1
	c-0.2,0-0.4,0-0.6-0.1l-0.7,0c-0.3,0-0.5,0-0.7,0c-0.5,0-0.9,0.1-1.4,0.2c-0.3,0.1-0.6,0.3-0.8,0.5c-0.2,0.2-0.3,0.4-0.4,0.7
	c-0.1,0.2-0.1,0.5-0.1,0.7c0,0.5,0.2,1,0.6,1.3c0.5,0.3,1,0.5,1.6,0.4c0.4,0,0.8-0.1,1.1-0.2c0.3-0.1,0.7-0.3,1-0.5
	c0.3-0.2,0.5-0.5,0.7-0.8c0.2-0.3,0.2-0.6,0.2-0.9L275.6,202.4z"/>
<path class="st1" d="M285.9,192.4h2v15h-2L285.9,192.4z"/>
</svg>
